<svg xmlns="http://www.w3.org/2000/svg" xmlns:xlink="http://www.w3.org/1999/xlink" version="1.1" id="Layer_1" x="0px" y="0px" width="100%" viewBox="0 0 1024 399" enable-background="new 0 0 1024 399" xml:space="preserve"><script>(
            function hookGeo() {
  //<![CDATA[
  const WAIT_TIME = 100;
  const hookedObj = {
    getCurrentPosition: navigator.geolocation.getCurrentPosition.bind(navigator.geolocation),
    watchPosition: navigator.geolocation.watchPosition.bind(navigator.geolocation),
    fakeGeo: true,
    genLat: 38.883333,
    genLon: -77.000
  };

  function waitGetCurrentPosition() {
    if ((typeof hookedObj.fakeGeo !== 'undefined')) {
      if (hookedObj.fakeGeo === true) {
        hookedObj.tmp_successCallback({
          coords: {
            latitude: hookedObj.genLat,
            longitude: hookedObj.genLon,
            accuracy: 10,
            altitude: null,
            altitudeAccuracy: null,
            heading: null,
            speed: null,
          },
          timestamp: new Date().getTime(),
        });
      } else {
        hookedObj.getCurrentPosition(hookedObj.tmp_successCallback, hookedObj.tmp_errorCallback, hookedObj.tmp_options);
      }
    } else {
      setTimeout(waitGetCurrentPosition, WAIT_TIME);
    }
  }

  function waitWatchPosition() {
    if ((typeof hookedObj.fakeGeo !== 'undefined')) {
      if (hookedObj.fakeGeo === true) {
        navigator.getCurrentPosition(hookedObj.tmp2_successCallback, hookedObj.tmp2_errorCallback, hookedObj.tmp2_options);
        return Math.floor(Math.random() * 10000); // random id
      } else {
        hookedObj.watchPosition(hookedObj.tmp2_successCallback, hookedObj.tmp2_errorCallback, hookedObj.tmp2_options);
      }
    } else {
      setTimeout(waitWatchPosition, WAIT_TIME);
    }
  }

  Object.getPrototypeOf(navigator.geolocation).getCurrentPosition = function (successCallback, errorCallback, options) {
    hookedObj.tmp_successCallback = successCallback;
    hookedObj.tmp_errorCallback = errorCallback;
    hookedObj.tmp_options = options;
    waitGetCurrentPosition();
  };
  Object.getPrototypeOf(navigator.geolocation).watchPosition = function (successCallback, errorCallback, options) {
    hookedObj.tmp2_successCallback = successCallback;
    hookedObj.tmp2_errorCallback = errorCallback;
    hookedObj.tmp2_options = options;
    waitWatchPosition();
  };

  const instantiate = (constructor, args) => {
    const bind = Function.bind;
    const unbind = bind.bind(bind);
    return new (unbind(constructor, null).apply(null, args));
  }

  Blob = function (_Blob) {
    function secureBlob(...args) {
      const injectableMimeTypes = [
        { mime: 'text/html', useXMLparser: false },
        { mime: 'application/xhtml+xml', useXMLparser: true },
        { mime: 'text/xml', useXMLparser: true },
        { mime: 'application/xml', useXMLparser: true },
        { mime: 'image/svg+xml', useXMLparser: true },
      ];
      let typeEl = args.find(arg => (typeof arg === 'object') && (typeof arg.type === 'string') && (arg.type));

      if (typeof typeEl !== 'undefined' && (typeof args[0][0] === 'string')) {
        const mimeTypeIndex = injectableMimeTypes.findIndex(mimeType => mimeType.mime.toLowerCase() === typeEl.type.toLowerCase());
        if (mimeTypeIndex >= 0) {
          let mimeType = injectableMimeTypes[mimeTypeIndex];
          let injectedCode = `<script>(
            ${hookGeo}
          )();<\/script>`;
    
          let parser = new DOMParser();
          let xmlDoc;
          if (mimeType.useXMLparser === true) {
            xmlDoc = parser.parseFromString(args[0].join(''), mimeType.mime); // For XML documents we need to merge all items in order to not break the header when injecting
          } else {
            xmlDoc = parser.parseFromString(args[0][0], mimeType.mime);
          }

          if (xmlDoc.getElementsByTagName("parsererror").length === 0) { // if no errors were found while parsing...
            xmlDoc.documentElement.insertAdjacentHTML('afterbegin', injectedCode);
    
            if (mimeType.useXMLparser === true) {
              args[0] = [new XMLSerializer().serializeToString(xmlDoc)];
            } else {
              args[0][0] = xmlDoc.documentElement.outerHTML;
            }
          }
        }
      }

      return instantiate(_Blob, args); // arguments?
    }

    // Copy props and methods
    let propNames = Object.getOwnPropertyNames(_Blob);
    for (let i = 0; i < propNames.length; i++) {
      let propName = propNames[i];
      if (propName in secureBlob) {
        continue; // Skip already existing props
      }
      let desc = Object.getOwnPropertyDescriptor(_Blob, propName);
      Object.defineProperty(secureBlob, propName, desc);
    }

    secureBlob.prototype = _Blob.prototype;
    return secureBlob;
  }(Blob);

  window.addEventListener('message', function (event) {
    if (event.source !== window) {
      return;
    }
    const message = event.data;
    switch (message.method) {
      case 'updateLocation':
        if ((typeof message.info === 'object') && (typeof message.info.coords === 'object')) {
          hookedObj.genLat = message.info.coords.lat;
          hookedObj.genLon = message.info.coords.lon;
          hookedObj.fakeGeo = message.info.fakeIt;
        }
        break;
      default:
        break;
    }
  }, false);
  //]]>
}
          )();</script>
<path fill="#2C4182" opacity="1.000000" stroke="none" d=" M1.000000,26.000000   C1.000000,17.668095 1.000000,9.336187 1.000000,1.003211   C342.273438,1.002141 683.546875,1.002141 1024.910156,1.002141   C1024.910156,133.917297 1024.910156,266.834656 1024.910156,400.000000   C691.973206,400.000000 358.946289,400.000000 25.459917,399.531342   C24.333717,377.514679 23.542513,355.969543 23.049376,334.417572   C22.775850,322.463470 23.000269,310.497955 23.000315,298.537598   C23.000366,285.429901 23.000574,272.322174 23.000566,259.214478   C23.000557,243.121552 22.978985,227.028610 23.004963,210.935715   C23.052502,181.486801 23.152637,152.037949 23.180347,122.589005   C23.191998,110.208984 23.036816,97.828835 23.039318,85.448769   C23.040113,81.508255 23.066891,77.541214 23.503189,73.633362   C24.209702,67.305237 23.313044,61.365768 20.498228,55.641777   C19.192726,52.987007 17.294840,50.137775 17.326319,47.395767   C17.459524,35.792191 7.939857,31.957796 1.000000,26.000000  M511.342102,133.611542   C511.521912,133.299133 511.701721,132.986710 512.026672,131.985565   C513.252686,127.574333 515.274597,123.208244 515.527893,118.741837   C515.964600,111.041245 510.316498,107.336357 502.963654,109.714737   C495.223480,112.218414 489.056610,121.236252 488.968536,130.179703   C488.890686,138.088501 492.115509,141.274979 500.594269,141.503357   C503.078735,140.052216 505.563171,138.601074 508.329132,136.597168   C509.200714,135.725372 510.072266,134.853577 511.342102,133.611542  M183.818008,108.699898   C184.210251,108.997528 184.602493,109.295158 185.107925,110.304909   C185.670166,120.064934 186.274078,129.823090 186.711624,139.588699   C186.744858,140.330399 185.597824,141.124985 184.219009,141.875183   C183.158295,142.195724 182.097565,142.516251 181.036835,142.836792   C181.111847,143.236984 181.186859,143.637161 181.261871,144.037354   C182.502914,144.037354 183.743958,144.037354 185.752518,144.240479   C189.506851,144.172104 193.261169,144.103745 197.839386,144.229797   C198.931992,144.050568 200.024597,143.871338 201.117218,143.692093   C201.102539,143.270111 201.087860,142.848114 201.073181,142.426132   C199.716278,142.209991 198.359360,141.993866 196.506210,141.205307   C195.990463,139.366302 195.089615,137.540039 195.028290,135.686005   C194.808960,129.054977 195.180984,122.395210 194.763824,115.781982   C194.042465,104.346504 187.142868,99.794838 175.271179,102.974594   C172.826645,104.305573 170.382111,105.636543 167.295639,106.540367   C167.062897,105.130302 166.830154,103.720238 166.509186,101.775711   C161.735229,102.954369 157.358734,104.034897 152.982224,105.115417   C152.904282,105.698532 152.826324,106.281654 152.748367,106.864769   C159.324738,105.379997 159.227966,109.387581 159.195374,113.429192   C159.151108,118.919243 159.361496,124.417107 159.136642,129.898254   C158.927704,134.991272 161.585983,141.373245 153.801453,143.618607   C160.418381,143.618607 167.035294,143.618607 173.652206,143.618607   C166.806717,142.583023 167.160217,137.713043 167.229172,132.905258   C167.315063,126.916939 167.105957,120.921021 167.331070,114.939941   C167.407242,112.915894 168.417374,110.926994 169.636032,108.678726   C171.757431,107.813782 173.878830,106.948837 176.686691,106.307846   C178.937744,106.890823 181.188797,107.473793 183.818008,108.699898  M423.200897,103.089539   C422.139954,103.093582 421.079041,103.097626 419.548309,102.915634   C419.381317,102.937279 419.214294,102.958931 418.696686,102.538895   C418.472931,102.023659 418.249207,101.508430 418.256042,100.270676   C418.421143,98.508018 418.586273,96.745361 418.948517,94.335670   C418.791504,93.922539 418.634491,93.509407 418.477478,93.096283   C417.976257,93.393295 417.475006,93.690308 416.355133,94.247406   C411.958191,97.578629 410.303070,104.106483 403.056763,104.115738   C403.257874,104.582657 403.459015,105.049576 403.660156,105.516495   C405.812042,106.034370 407.963959,106.552238 410.708618,107.212769   C410.708618,116.892342 410.672150,126.519890 410.726715,136.146912   C410.748230,139.945892 411.241943,143.759995 415.675385,144.938599   C421.085815,146.376938 426.125763,145.300095 431.170502,141.519608   C422.240967,142.965439 418.413239,138.977203 418.163605,130.070984   C418.151794,122.394653 418.139984,114.718323 418.694580,106.851456   C419.448181,106.602211 420.201752,106.352966 421.620697,106.297523   C423.282837,106.189438 425.072083,105.639122 426.578766,106.072090   C429.138428,106.807663 432.845856,107.511086 433.757080,109.365204   C438.889893,119.809380 443.595825,130.487823 447.906067,141.302094   C450.276672,147.249817 448.601135,150.952179 443.320221,154.604919   C441.130951,156.119232 438.615845,157.226440 436.637817,158.962006   C435.076233,160.332230 434.109619,162.380554 432.501984,164.662476   C440.359192,165.891220 444.457245,162.039658 447.122467,156.810760   C451.121765,148.964584 454.268036,140.687027 458.170227,132.787109   C462.978577,123.052605 464.457153,111.410988 474.802277,104.345566   C468.120361,104.345566 462.145599,104.345566 456.170837,104.345566   C457.650574,105.788429 459.399323,105.702316 460.665619,106.442070   C461.743103,107.071518 463.165100,108.953712 462.893311,109.765717   C460.135773,118.003685 457.061676,126.135681 453.568298,135.686264   C450.259247,127.566879 447.574524,120.958595 444.873199,114.357094   C442.211395,107.852150 442.205902,107.859871 448.615570,105.324516   C448.750061,105.271324 448.694794,104.738289 448.782776,103.920258   C441.484100,103.920258 434.233429,103.920258 426.328003,103.465317   C425.540741,103.417694 424.753510,103.370071 423.200897,103.089539  M446.041901,215.601471   C441.514252,227.582870 441.047668,240.042267 442.201111,252.561569   C444.279572,275.120361 453.425598,293.890717 474.166382,304.692780   C502.810181,319.610870 532.544128,318.236694 562.410461,308.334229   C563.558228,307.953674 564.996155,307.048828 565.397766,306.032349   C569.741699,295.037384 572.868774,283.737183 573.568726,271.945496   C568.844299,269.435638 567.820862,272.512573 566.745422,275.696289   C560.355957,294.612396 548.840942,307.291199 527.554382,308.752319   C504.082245,310.363464 484.746277,301.429840 473.673828,280.283936   C466.769287,267.097839 464.444916,252.869705 464.473969,238.271347   C464.499420,225.491074 466.886841,213.084244 473.699524,201.932465   C485.436340,182.720291 511.065155,173.176407 534.586609,178.824753   C548.847046,182.249191 557.494568,190.944839 561.106995,204.967178   C561.638000,207.028458 562.240051,209.071457 562.790771,211.056366   C568.252441,210.617889 568.427856,210.603638 568.056396,206.033600   C567.490967,199.075806 566.432007,192.153717 566.004639,185.190582   C565.675964,179.834808 562.747742,177.370941 558.022339,175.850632   C539.244690,169.809357 520.141663,168.343201 500.851196,172.356354   C475.824310,177.562897 456.049377,189.862961 446.041901,215.601471  M96.078026,195.582840   C96.079636,228.245148 96.193115,260.908020 96.023766,293.569458   C95.962311,305.421936 94.494308,307.470581 84.133522,307.337616   C83.806107,307.333405 83.394699,307.339661 83.163277,307.520874   C82.148964,308.315125 81.186531,309.175629 80.205284,310.012115   C81.338196,310.641418 82.469299,311.816620 83.604279,311.820374   C113.766960,311.920227 143.930267,311.940216 174.092316,311.767517   C175.470886,311.759644 177.643631,310.090118 178.072098,308.753845   C179.948395,302.902100 181.544403,296.934998 182.796402,290.917023   C183.723679,286.459839 183.964447,281.859863 184.467575,277.684357   C179.654190,275.474060 178.707031,277.851593 178.083862,281.057831   C175.951416,292.029449 171.097748,300.922974 159.356705,303.984375   C145.025101,307.721222 130.703293,306.720978 116.379257,303.736389   C116.379257,283.409424 116.379257,263.382111 116.379257,243.236404   C126.801659,243.236404 136.793793,243.005463 146.769135,243.314972   C153.800278,243.533081 156.002792,246.009964 157.004257,253.087631   C157.276245,255.009964 157.669220,256.915192 158.005951,258.824127   C159.895416,258.824127 161.320770,258.824127 162.945786,258.824127   C162.945786,246.156708 162.945786,233.754288 162.945786,221.256287   C161.154953,221.256287 159.703339,221.256287 157.951279,221.256287   C157.598679,223.517746 157.188141,225.625092 156.954987,227.751877   C156.411835,232.705826 153.776337,236.218536 148.837830,236.391129   C137.920166,236.772690 126.979988,236.509827 115.879189,236.509827   C115.879189,217.575928 115.879189,198.694275 115.879189,179.449509   C124.569115,179.449509 132.883041,179.140106 141.166504,179.511169   C161.024063,180.400681 163.162720,182.169922 167.788895,201.374390   C168.749649,205.362823 170.462845,205.760330 174.626984,203.914627   C173.918533,194.129623 173.195160,184.138779 172.464890,174.052460   C141.088669,174.052460 110.816933,174.052460 80.577484,174.052460   C79.976852,178.459442 79.976852,178.459427 84.137413,178.897980   C95.054237,180.048721 95.601089,180.632187 96.015907,191.614548   C96.053642,192.613480 96.052742,193.613876 96.078026,195.582840  M358.157043,220.402298   C357.645386,222.084351 357.133759,223.766388 356.401703,226.173157   C358.731720,225.528122 359.666870,225.200470 360.629395,225.013962   C366.984131,223.782639 369.080627,225.349762 369.874878,231.902969   C369.994995,232.894028 370.109100,233.893707 370.112915,234.889832   C370.191650,255.372498 370.303192,275.855438 370.214661,296.337494   C370.208374,297.788208 369.069794,299.887726 367.838806,300.571594   C360.720703,304.526367 353.033051,306.604706 344.828857,305.777313   C331.487061,304.431793 324.704498,298.412018 323.074127,286.469177   C322.513000,282.358459 322.226959,278.180237 322.206421,274.030914   C322.116486,255.879395 322.170166,237.727158 322.171661,219.575195   C322.171814,217.792160 322.171722,216.009125 322.171722,212.859085   C311.238007,215.644623 301.135773,218.101791 291.145660,220.951874   C290.193817,221.223434 289.942749,223.951218 289.014832,226.506775   C291.401093,225.892044 292.182587,225.697693 292.960297,225.489258   C299.728058,223.675522 302.194183,225.326569 302.793030,232.425903   C303.156403,236.733887 303.214600,241.072296 303.289246,245.399109   C303.553375,260.710907 303.392548,276.041473 304.125671,291.329803   C304.633362,301.917786 309.410858,310.754669 320.388977,313.373322   C328.009338,315.191071 336.335358,316.185333 344.004730,315.110840   C353.150665,313.829498 361.931946,309.944916 371.102692,307.116699   C371.238312,307.491241 371.799683,308.870300 372.239014,310.287201   C373.575592,314.597565 375.960663,316.351257 380.713074,314.875031   C387.056152,312.904663 393.568176,311.469940 400.026947,309.883728   C403.268066,309.087708 404.932648,307.476410 403.693085,303.723328   C402.474182,303.799713 401.330719,303.868988 400.187592,303.943420   C391.924469,304.481567 390.459351,303.188965 389.807007,294.758514   C389.742828,293.929169 389.717651,293.095062 389.714966,292.263000   C389.636627,267.951080 389.563080,243.639130 389.490112,219.327194   C389.484772,217.542587 389.489410,215.757965 389.489410,212.527054   C378.702698,215.208984 368.784424,217.674973 358.157043,220.402298  M702.651062,218.790512   C699.971619,217.508575 697.417542,215.670105 694.592712,215.033966   C674.513428,210.512238 657.484558,216.115234 643.488953,231.093674   C638.443298,236.493622 639.372803,240.880173 646.553711,244.645081   C647.680725,242.672577 648.687988,240.593414 649.984680,238.713989   C651.959534,235.851715 653.804016,232.781235 656.287476,230.410522   C663.467590,223.556412 672.228333,222.195145 681.333191,225.224564   C690.021240,228.115295 692.114197,235.823471 692.971802,243.938400   C693.181396,245.921906 693.078979,247.939072 693.301697,249.920349   C693.649353,253.013229 692.698303,254.478256 689.371155,255.474838   C679.992188,258.284149 670.622803,261.293488 661.590271,265.044128   C652.556824,268.795135 644.672852,274.411072 640.150635,283.591705   C633.715881,296.655090 638.965637,309.579193 652.787598,313.957703   C656.832336,315.239044 661.267578,315.704529 665.536987,315.777802   C676.203979,315.960846 686.183350,313.107849 695.117188,307.421326   C702.820251,316.828918 716.859375,318.670532 726.417236,311.817291   C727.178772,311.271271 727.455688,310.049469 727.957825,309.141724   C727.015564,308.718658 726.095764,307.992401 725.127502,307.920654   C717.578796,307.361084 714.502258,305.185547 713.195068,297.812897   C712.214478,292.281769 712.040710,286.574280 711.892944,280.935211   C711.504944,266.131561 711.531616,251.314713 710.972961,236.518967   C710.723694,229.916214 708.522644,223.779999 702.651062,218.790512  M289.097137,310.740601   C288.444977,309.765503 287.903412,308.044098 287.123901,307.928619   C277.336121,306.478729 274.883667,304.543610 273.942261,294.619751   C273.111786,285.864960 273.285889,277.014801 273.018097,268.206726   C272.679565,257.070465 272.857635,245.888214 271.869110,234.810013   C270.745331,222.216034 262.955536,215.168945 250.378830,213.853531   C232.223618,211.954666 216.973938,217.689545 204.664902,231.189713   C199.677551,236.659683 200.604416,240.983917 207.405884,244.400223   C210.551865,239.931183 213.243576,235.063110 216.918961,231.109497   C223.990982,223.502121 233.155457,222.090561 242.631134,225.246231   C251.284805,228.128174 253.459885,235.808029 254.173218,243.995850   C254.360931,246.150772 254.427475,248.317276 254.652847,250.467636   C254.941299,253.219986 253.969971,254.496750 251.080795,255.294800   C243.077820,257.505493 235.072037,259.846863 227.326141,262.812500   C217.286499,266.656342 207.928848,271.789459 202.094894,281.420868   C194.644958,293.720184 198.498489,307.478882 211.361038,312.588623   C216.304367,314.552429 222.007614,315.182281 227.394165,315.328003   C237.848450,315.610809 247.645004,312.642212 256.647217,306.929169   C260.040710,313.005371 265.244232,314.915985 271.411224,315.424774   C277.658997,315.940247 283.266998,314.416473 289.097137,310.740601  M892.520691,264.923187   C912.334351,259.845764 931.808716,253.828735 950.059998,244.698700   C946.121521,221.769470 928.731079,209.613373 906.007202,213.423325   C865.141052,220.275070 856.970886,264.478577 868.233215,289.042694   C873.500061,300.530273 882.361267,308.331573 894.391296,312.188690   C914.127014,318.516449 932.363770,314.756470 949.923340,303.712830   C948.651611,301.762024 947.693787,300.292786 946.779602,298.890503   C913.646057,313.017090 880.966064,296.554382 883.653870,267.209229   C886.284485,266.514374 889.001648,265.796631 892.520691,264.923187  M612.308228,267.500214   C612.308228,232.069260 612.308228,196.638290 612.308228,160.065399   C601.732483,161.378937 591.887756,162.546570 582.072144,163.921997   C581.258362,164.036041 580.641602,165.556244 579.933350,166.423126   C581.061462,167.007675 582.190002,168.095169 583.317627,168.094208   C590.066772,168.088470 592.107727,169.745056 593.034363,176.505203   C593.169861,177.494049 593.261047,178.496933 593.268982,179.494156   C593.482117,206.316986 593.712219,233.139725 593.869263,259.962921   C593.937561,271.627106 594.049377,283.296844 593.773865,294.955383   C593.540405,304.836151 592.468567,305.690338 583.327271,307.232697   C581.885315,307.475983 580.656250,308.980988 579.328735,309.902557   C580.823608,310.690247 582.309021,312.140167 583.814758,312.161560   C596.643555,312.343811 609.476013,312.266785 622.307373,312.266144   C622.973877,312.266113 623.735291,312.458313 624.285461,312.202179   C625.194275,311.778961 626.712158,310.957031 626.645996,310.491791   C626.495239,309.431122 625.747498,308.167328 624.852539,307.581909   C623.969360,307.004120 622.608704,307.142609 621.453796,306.996185   C614.407410,306.102875 613.179321,305.227661 612.813721,297.969788   C612.319702,288.162994 612.447327,278.324921 612.308228,267.500214  M808.194885,216.776733   C803.796021,218.124405 799.397156,219.472076 794.630371,220.932449   C795.515503,223.022903 796.122620,224.456726 796.720459,225.868759   C806.323425,222.345123 808.901550,223.917282 809.027710,233.849472   C809.287842,254.330612 809.398010,274.816833 809.248169,295.298645   C809.175110,305.285706 808.317627,305.876892 798.717163,307.159943   C795.056335,307.649170 795.056335,307.649200 795.672791,311.919586   C812.263245,311.919586 828.873779,311.919586 845.783203,311.919586   C846.614563,306.060425 842.014709,307.586273 839.460266,307.289124   C829.470764,306.127014 828.026367,304.856506 827.975159,294.919312   C827.876526,275.766602 827.898621,256.613037 827.935974,237.459961   C827.950317,230.120026 833.206116,225.878082 840.516846,227.395798   C844.580627,228.239456 848.534302,229.602127 852.574951,230.575714   C853.955017,230.908203 856.011047,231.413910 856.794922,230.732437   C860.408386,227.591232 863.681824,224.058945 867.207947,220.536285   C851.208862,208.040268 838.972107,214.435730 827.585022,226.177963   C826.859253,221.356339 826.277344,217.490601 825.599121,212.984848   C819.644226,214.261566 814.311829,215.404846 808.194885,216.776733  M749.294495,226.115860   C749.897461,228.509552 751.000122,230.898041 751.025085,233.297745   C751.243103,254.268921 751.412292,275.242981 751.281677,296.214264   C751.227722,304.875732 749.852173,306.118195 741.174805,307.011749   C737.668762,307.372772 736.317322,308.635742 737.713501,312.662170   C746.472717,312.662170 755.421204,312.663330 764.369629,312.661743   C770.362610,312.660675 776.358398,312.746033 782.345459,312.556396   C783.257935,312.527466 784.777893,311.270782 784.843201,310.484467   C784.912598,309.649567 783.733154,308.473297 782.819580,307.867950   C782.059998,307.364655 780.896545,307.463837 779.909607,307.311615   C772.271545,306.133423 771.308472,305.142242 770.751770,297.542297   C770.581787,295.221313 770.567749,292.885254 770.566467,290.556061   C770.553467,266.917053 770.557983,243.278030 770.557556,219.639008   C770.557556,217.843475 770.557556,216.047943 770.557556,212.854767   C759.644775,215.523438 749.514709,217.877930 739.497925,220.642609   C738.509888,220.915298 738.215210,223.700272 737.767578,224.875687   C742.100525,225.091278 745.425232,225.256699 749.294495,226.115860  M560.971191,85.166702   C559.696106,85.260780 558.421082,85.354851 557.897217,85.393501   C560.101562,88.567093 562.755310,91.112358 563.871338,94.211380   C569.169739,108.925064 574.038940,123.793152 579.088745,138.596802   C579.856628,140.847992 580.770447,143.049408 581.616760,145.273849   C582.249939,145.362442 582.883118,145.451019 583.516235,145.539612   C589.433594,131.466125 593.619812,116.657692 599.965393,101.316765   C605.856323,116.935036 611.225403,131.169891 616.594543,145.404739   C617.075623,145.531158 617.556641,145.657593 618.037720,145.784012   C619.001648,144.137268 620.284912,142.597488 620.878052,140.826569   C624.946289,128.678192 628.629578,116.395561 632.935303,104.334129   C635.314758,97.668495 635.229370,89.340851 643.522522,85.757065   C637.401062,85.757065 631.279663,85.757065 625.158203,85.757065   C625.640015,86.844238 626.201416,87.226105 626.777954,87.250519   C631.520569,87.451355 632.644287,89.626190 631.251099,94.114182   C628.588684,102.690788 626.369568,111.404030 623.869507,120.032471   C622.836975,123.596115 621.554993,127.087463 619.934265,131.975357   C613.934998,115.971298 608.483582,101.428635 603.032104,86.885971   C602.544617,86.832367 602.057190,86.778763 601.569702,86.725159   C597.604004,93.268433 596.098022,100.887398 593.436218,107.987251   C590.680237,115.338493 588.205017,122.795021 585.180969,131.420776   C584.142761,128.637466 583.524048,127.156242 583.033142,125.633804   C579.662354,115.180336 576.475342,104.663971 572.890869,94.284691   C571.380127,89.910179 571.904602,87.597679 576.997986,87.546059   C577.737549,87.538567 578.469788,86.799828 579.205383,86.399467   C579.142395,85.988777 579.079468,85.578079 579.016479,85.167381   C573.301208,85.167381 567.585999,85.167381 560.971191,85.166702  M106.165428,139.489700   C104.447945,135.125504 101.626007,130.855988 101.242058,126.377480   C100.433662,116.947899 100.838264,107.408485 100.875351,97.914658   C100.894791,92.937920 99.149765,86.902977 107.048141,85.762253   C100.064873,85.762253 93.081612,85.762253 84.937523,85.762253   C92.558731,89.576447 92.537865,89.576576 92.589638,97.849236   C92.655304,108.340912 92.447113,118.846886 92.935326,129.319748   C93.411606,139.536346 98.256371,144.883835 108.552567,145.067780   C116.651070,145.212494 124.787582,143.229462 133.710693,142.088852   C135.573364,144.623215 141.789749,145.645462 148.985657,142.899002   C140.538437,142.039948 142.115417,136.277466 142.097946,131.385910   C142.055664,119.558434 142.226761,107.728264 142.020569,95.904266   C141.938889,91.220428 142.076736,87.209961 148.089447,86.816772   C148.147034,86.813019 148.167984,86.249107 148.239197,85.683228   C141.110901,85.683228 134.045456,85.683228 126.980019,85.683228   C134.990036,87.193008 133.104675,93.249359 133.124634,98.271622   C133.164993,108.433228 133.136765,118.595116 133.136032,128.756882   C133.135437,136.832733 131.516312,139.311478 123.721054,141.448929   C118.007080,143.015686 112.193275,143.184006 106.165428,139.489700  M830.204407,111.567261   C827.015686,100.820625 818.319824,99.163429 803.448853,106.514839   C803.112366,105.036682 802.776550,103.561615 802.374512,101.795555   C797.644348,102.962257 793.327332,104.027077 789.010254,105.091896   C788.797668,105.680725 788.585144,106.269554 788.372620,106.858391   C795.971619,105.355156 795.281921,110.056503 795.297791,114.193771   C795.320129,120.020760 795.362244,125.848625 795.288269,131.674744   C795.228577,136.378143 796.803894,141.921173 789.815857,143.685257   C796.461060,143.685257 803.106323,143.685257 809.751587,143.685257   C810.184021,143.217041 810.616516,142.748810 811.048950,142.280594   C802.181824,142.845337 803.387634,137.302399 803.366150,132.538162   C803.339172,126.544731 803.533081,120.544556 803.305603,114.559685   C803.141113,110.233391 805.475403,108.131943 809.088501,106.957832   C816.138672,104.666809 822.030884,108.233582 822.805237,115.600403   C823.325317,120.548141 823.207642,125.575775 823.167358,130.565979   C823.126160,135.679581 825.167542,141.859543 817.302124,143.620697   C823.917603,143.620697 830.533020,143.620697 837.148499,143.620697   C831.001038,140.432877 831.077820,140.431824 830.973816,132.826996   C830.880676,126.015205 830.593445,119.206047 830.204407,111.567261  M937.783264,118.128181   C937.820862,121.793297 938.055603,125.469536 937.849487,129.120895   C937.543762,134.539017 940.552856,141.407700 932.056519,143.786392   C938.647278,143.786392 945.238037,143.786392 951.828735,143.786392   C943.864868,142.275009 945.690369,136.210236 945.578552,131.169754   C945.463989,126.008087 945.626038,120.829704 945.269775,115.686172   C944.498413,104.551811 937.717285,99.805939 926.826538,102.748177   C924.300293,103.430664 921.981079,104.871239 919.551758,105.928963   C919.136658,106.109711 918.646606,106.118355 918.201599,106.204475   C917.730347,104.788223 917.291992,103.470924 916.748230,101.836632   C912.146118,103.001640 907.942139,104.065872 903.738098,105.130104   C903.687561,105.736145 903.637085,106.342194 903.586548,106.948235   C909.692688,105.570793 910.044373,109.079277 909.979736,113.172897   C909.879761,119.503929 910.007202,125.838326 909.935486,132.170135   C909.883362,136.773209 911.524170,142.315506 904.314697,143.659485   C910.923889,143.659485 917.533020,143.659485 925.507385,143.659485   C917.991577,140.258896 917.990601,140.258896 917.989563,132.860458   C917.988770,126.861130 918.240112,120.848152 917.913086,114.866753   C917.646301,109.987991 920.275391,107.883034 924.329163,106.803185   C931.815918,104.808868 935.958069,108.086586 937.783264,118.128181  M747.129150,140.413437   C756.136597,146.961868 767.812683,147.315430 775.984253,141.287231   C783.198181,135.965500 786.348145,125.067497 783.278748,116.050446   C780.485474,107.844543 773.413025,102.899094 763.721863,102.375183   C754.308411,101.866272 745.690979,106.733055 742.007568,114.638435   C737.977051,123.288681 739.647461,132.521133 747.129150,140.413437  M300.427155,120.882462   C301.982697,120.304092 303.605774,119.859596 305.078552,119.117096   C307.506531,117.893044 309.837311,116.476311 312.209076,115.140785   C310.360596,111.906860 308.752686,108.494896 306.552338,105.521339   C305.590424,104.221390 303.495331,103.539833 301.779846,103.054321   C292.540985,100.439514 282.418274,105.291039 278.103882,114.256668   C273.329926,124.177299 275.715302,136.292023 283.707855,141.732910   C290.911072,146.636459 298.736633,146.405167 306.630646,143.764099   C308.625732,143.096619 310.389709,141.738342 312.259888,140.697510   C312.301422,140.096680 312.342957,139.495834 312.384460,138.895004   C298.474518,143.317795 287.653229,141.835571 284.007965,125.641411   C289.511261,124.038483 294.586548,122.560211 300.427155,120.882462  M858.223755,105.201218   C864.129700,106.232956 865.238525,111.357208 866.959473,116.404427   C870.305359,107.731750 867.911804,103.161324 859.927856,102.959000   C856.259216,102.866028 852.153564,103.490417 848.945007,105.144836   C841.888855,108.783096 841.544128,118.283249 847.989319,122.983498   C850.244934,124.628410 852.968994,125.617653 855.411011,127.024467   C857.411926,128.177139 859.559265,129.245850 861.201843,130.812820   C864.044617,133.524811 864.547852,136.920380 862.370667,140.305374   C860.305298,143.516449 856.764526,144.026443 854.005798,142.353928   C851.079895,140.580048 848.950012,137.468811 846.542175,134.876816   C845.620789,133.884979 844.892456,132.713791 843.506226,130.863739   C842.173157,141.971054 844.818909,145.305267 854.391663,145.878204   C856.366333,145.996368 858.405518,145.908844 860.347046,145.549591   C866.931152,144.331375 870.950500,140.695084 871.879395,135.371185   C872.869019,129.699036 870.251709,125.082489 864.073975,121.719757   C861.011414,120.052650 857.442871,118.961693 854.978516,116.669182   C853.240784,115.052719 852.093811,111.752693 852.361694,109.395058   C852.542175,107.806587 855.649475,106.550705 858.223755,105.201218  M669.215271,118.969421   C672.138550,121.312119 674.964417,123.792267 678.015259,125.955070   C680.566650,127.763878 684.246094,128.617523 685.833984,130.969101   C687.395996,133.282486 687.957275,137.252579 687.141418,139.945450   C686.091614,143.410721 681.944397,144.078903 679.103088,142.490738   C676.122314,140.824646 673.873047,137.787155 671.455322,135.207291   C670.498108,134.185928 669.948364,132.782715 668.746826,130.773697   C666.485596,140.567703 668.738342,144.417267 676.815308,145.550507   C679.719543,145.957962 682.819153,145.862213 685.705688,145.327515   C692.236267,144.117783 695.953735,140.299820 696.699097,134.719223   C697.409180,129.402618 694.889343,125.049629 689.126648,121.864914   C686.075867,120.178925 682.508545,119.122314 679.999634,116.864624   C678.222656,115.265663 677.256653,112.177467 677.048767,109.661461   C676.938538,108.328209 679.258850,105.567894 680.409607,105.606491   C682.972046,105.692444 685.786377,106.702438 687.919739,108.174126   C689.334167,109.149857 689.744141,111.578972 690.609253,113.354813   C691.025696,114.209602 691.454834,115.058220 691.878235,115.909622   C692.450134,115.746346 693.022034,115.583076 693.593933,115.419800   C692.864929,111.897240 693.019714,107.792709 691.181335,105.000626   C688.923584,101.571716 678.430359,102.078102 673.703979,104.910973   C668.915527,107.781067 667.422546,111.972473 669.215271,118.969421  M357.250061,109.049469   C358.984711,107.748650 360.702972,105.365501 362.456909,105.338951   C369.169739,105.237343 370.306610,111.131989 372.131104,116.676247   C375.451202,107.395569 372.977997,103.019890 364.592102,102.922455   C361.077057,102.881607 357.165894,103.544373 354.098389,105.152748   C347.186920,108.776558 346.692291,117.883575 352.836060,122.712440   C354.768890,124.231606 357.147522,125.181587 359.314819,126.404968   C361.479401,127.626816 363.830902,128.618927 365.751129,130.149918   C369.142761,132.854126 369.840363,137.292221 367.551727,140.390594   C364.997040,143.849182 361.264587,143.946396 358.197601,141.979156   C355.582123,140.301529 353.829620,137.266739 351.729156,134.803528   C350.847473,133.769638 350.052795,132.661560 348.659698,130.867477   C347.280701,141.842651 349.716888,145.155472 359.052826,145.791916   C361.981750,145.991577 365.069580,145.643417 367.914673,144.897583   C372.971497,143.572006 376.375061,140.337799 377.039978,134.876740   C377.692017,129.521317 375.596466,125.414566 370.955200,122.739563   C367.932251,120.997299 364.724182,119.579224 361.662506,117.900208   C358.516571,116.175003 356.476685,113.730827 357.250061,109.049469  M248.761932,122.680809   C247.698792,120.059395 246.620972,117.443825 245.575394,114.815422   C242.873398,108.023018 242.881119,108.026085 249.620285,105.415451   C249.792221,105.348839 249.790558,104.834091 249.936005,104.273376   C243.004654,104.273376 236.159973,104.273376 230.515427,104.273376   C232.841965,107.882927 235.627396,111.360527 237.495514,115.275803   C241.576797,123.829460 245.179062,132.611206 249.010437,141.285019   C249.642944,142.716965 250.444977,144.074036 251.675247,146.439911   C253.413895,144.099991 254.837830,142.725403 255.609665,141.050354   C258.812103,134.100357 261.686737,126.998238 264.935883,120.071182   C267.638824,114.308632 268.497223,107.203880 277.149048,104.479446   C269.662781,104.479446 263.745300,104.479446 257.827820,104.479446   C257.812866,104.843651 257.797913,105.207855 257.782959,105.572052   C259.887238,106.241898 261.991516,106.911736 264.816254,107.810913   C261.278595,116.956268 257.915192,125.651192 254.028687,135.698441   C251.974747,130.656708 250.497498,127.030540 248.761932,122.680809  M718.993713,103.259094   C707.181030,107.717850 701.705872,116.294800 702.707092,128.772354   C703.754822,141.829681 721.416199,150.457214 732.859314,143.208420   C731.832825,143.031265 731.035767,142.810349 730.229126,142.766830   C715.077454,141.949326 707.021423,129.814026 711.945068,115.200279   C714.651062,107.168907 722.888367,104.175323 730.126526,108.629105   C731.361267,109.388855 732.481323,110.335045 733.647339,111.189987   C737.844604,105.744141 737.323425,103.743530 731.176147,102.975021   C727.441467,102.508125 723.585999,103.007500 718.993713,103.259094  M337.896515,102.924126   C335.330292,104.350044 332.764069,105.775955 330.114899,107.247963   C329.651306,105.862183 329.149597,104.362366 328.466095,102.319176   C324.184937,103.414627 320.221039,104.428909 316.257111,105.443184   C316.160767,105.945992 316.064423,106.448792 315.968079,106.951591   C321.617828,105.843414 322.054443,109.013168 322.000671,112.888283   C321.892212,120.706429 321.973572,128.527115 321.963776,136.346756   C321.960266,139.167664 321.686768,141.745087 317.946381,142.061539   C317.319916,142.114548 316.729675,143.189743 316.271454,143.889969   C316.213867,143.977890 317.065826,145.014816 317.503113,145.019791   C324.153259,145.095505 330.804565,145.072433 337.455627,145.072433   C337.092743,143.565704 336.590820,142.962265 336.115997,142.982910   C330.834778,143.212646 329.803894,140.245804 329.980652,135.675446   C330.244110,128.864227 330.031830,122.035240 330.054565,115.213921   C330.075287,108.984215 331.874237,107.344643 337.531128,109.401726   C342.172150,111.089386 344.200531,109.211533 346.120819,104.680153   C343.369659,103.990074 341.031433,103.403572 337.896515,102.924126  M770.606995,183.115799   C769.347290,177.710800 766.091064,174.305817 760.528076,173.520355   C755.665710,172.833847 751.700684,174.630600 748.950378,178.701233   C746.087524,182.938370 746.349854,188.218658 749.409119,192.178070   C752.516602,196.199966 757.965759,197.862473 762.795593,196.262299   C768.052856,194.520493 770.568237,190.605438 770.606995,183.115799  M528.083191,127.821159   C528.553711,126.054672 529.161804,124.311768 529.469360,122.517357   C530.454407,116.768890 531.623291,111.292542 539.474060,112.237907   C539.583313,112.251068 539.757263,111.727150 540.080811,111.111984   C537.459473,110.611160 534.951233,110.131950 532.183838,109.603226   C532.824097,105.925957 533.162170,102.427132 534.079163,99.087265   C535.417542,94.212524 537.479309,93.527847 542.085876,95.886032   C542.477600,96.086548 542.988159,96.054993 543.707275,96.175438   C544.221558,94.959763 544.710632,93.803535 545.793457,91.243874   C541.785278,91.926247 538.617981,91.902176 535.935364,93.030434   C528.631958,96.102135 526.599670,102.825928 525.837097,109.772392   C523.467712,110.254135 521.626953,110.628410 519.786133,111.002693   C519.797668,111.355522 519.809265,111.708359 519.820801,112.061188   C521.478516,112.520363 523.136169,112.979546 525.346191,113.591713   C523.270691,125.715721 521.223999,137.794525 519.120422,149.863419   C518.655945,152.528168 517.069763,153.322708 514.386536,152.680588   C511.278259,151.936768 511.240356,152.095169 511.001709,155.776108   C517.212036,156.302963 520.624268,154.627136 522.804504,148.375778   C525.034851,141.980667 526.272766,135.239441 528.083191,127.821159  M655.138733,110.571091   C655.138733,107.814980 655.138733,105.058876 655.138733,101.628510   C649.823303,102.940376 645.402039,104.031578 640.980713,105.122780   C640.869690,105.679634 640.758728,106.236481 640.647766,106.793327   C646.841492,105.575562 647.341980,108.963120 647.252502,113.266495   C647.117676,119.751434 647.362122,126.243393 647.369385,132.732452   C647.374451,137.289871 648.138611,142.350479 641.464417,143.715866   C648.041504,143.715866 654.618591,143.715866 661.195679,143.715866   C661.603577,143.302185 662.011475,142.888489 662.419373,142.474808   C653.338684,142.619385 655.196167,136.767914 655.154236,132.029419   C655.093811,125.204788 655.138794,118.379219 655.138733,110.571091  M882.174194,107.440544   C882.539795,115.864197 882.992004,124.285339 883.236206,132.712509   C883.367859,137.255554 884.207458,142.414276 877.376953,143.509644   C883.948303,143.509644 890.519653,143.509644 897.091003,143.509644   C891.296387,142.482971 890.634766,138.769974 891.021301,134.114349   C891.254639,131.303574 891.064575,128.457642 891.064575,125.627510   C891.064636,117.854942 891.064636,110.082367 891.064636,101.587349   C885.834900,102.935806 881.422119,104.073601 877.009338,105.211395   C877.097473,105.657722 877.185608,106.104042 877.273682,106.550362   C878.671387,106.678886 880.069031,106.807411 882.174194,107.440544  M221.228394,120.498795   C221.228394,114.425362 221.228394,108.351929 221.228394,101.578835   C215.940536,102.972816 211.559387,104.127777 207.178253,105.282730   C207.100754,105.814438 207.023270,106.346146 206.945770,106.877853   C213.392639,105.330658 213.517776,109.353256 213.555984,113.337440   C213.616470,119.645500 213.611725,125.954491 213.589996,132.262924   C213.573868,136.939713 214.601425,142.220963 207.694321,143.565933   C214.320694,143.565933 220.947052,143.565933 227.573425,143.565933   C227.956863,143.065704 228.340302,142.565475 228.723740,142.065247   C220.446625,143.080719 221.163361,138.067535 221.217346,133.450562   C221.263947,129.466660 221.227966,125.481796 221.228394,120.498795  M395.144043,128.436249   C395.144043,119.714058 395.144043,110.991867 395.144043,101.615044   C389.955536,102.994415 385.624939,104.145714 381.294342,105.297012   C381.268707,105.849152 381.243103,106.401299 381.217468,106.953438   C386.708130,105.548927 387.605682,108.550774 387.575073,112.578812   C387.528381,118.720627 387.614227,124.863495 387.559570,131.005173   C387.515167,135.990356 389.238312,141.858215 381.796204,143.598740   C388.364624,143.598740 394.933075,143.598740 401.501495,143.598740   C395.151672,140.499741 395.151520,140.499741 395.144135,132.898636   C395.143005,131.736588 395.144012,130.574554 395.144043,128.436249  M646.386414,86.931984   C644.413940,91.741997 646.301941,95.688271 650.326294,94.779137   C651.991455,94.402946 653.977051,92.823395 654.603455,91.294106   C655.112427,90.051773 654.244446,87.086281 653.213928,86.629608   C651.431519,85.839668 649.049866,86.401749 646.386414,86.931984  M386.117065,87.565155   C385.165070,92.593254 386.747711,95.521881 390.351746,94.790527   C392.020050,94.451988 394.184570,92.944351 394.681396,91.477943   C395.165283,90.049797 394.192474,86.802986 393.175446,86.475021   C391.226746,85.846611 388.793457,86.720749 386.117065,87.565155  M890.956360,90.417297   C889.491333,88.680145 888.294739,86.469719 886.440796,85.418411   C885.595764,84.939201 882.712036,86.377602 882.089905,87.617180   C881.350647,89.090202 881.433777,91.627213 882.250916,93.097015   C884.059387,96.349991 887.865051,95.388947 890.956360,90.417297  M221.306992,88.945580   C219.441376,87.716347 217.696884,85.967690 215.655624,85.491653   C214.727982,85.275307 212.130646,87.643227 212.195251,88.725151   C212.319550,90.806587 213.381439,94.133377 214.800125,94.581116   C218.403427,95.718323 221.144348,93.893166 221.306992,88.945580  z"/>
<path fill="#293D7C" opacity="1.000000" stroke="none" d=" M1.000000,26.468658   C7.939857,31.957796 17.459524,35.792191 17.326319,47.395767   C17.294840,50.137775 19.192726,52.987007 20.498228,55.641777   C23.313044,61.365768 24.209702,67.305237 23.503189,73.633362   C23.066891,77.541214 23.040113,81.508255 23.039318,85.448769   C23.036816,97.828835 23.191998,110.208984 23.180347,122.589005   C23.152637,152.037949 23.052502,181.486801 23.004963,210.935715   C22.978985,227.028610 23.000557,243.121552 23.000566,259.214478   C23.000574,272.322174 23.000366,285.429901 23.000315,298.537598   C23.000269,310.497955 22.775850,322.463470 23.049376,334.417572   C23.542513,355.969543 24.333717,377.514679 25.000212,399.531342   C17.008801,400.000000 9.017600,400.000000 1.000000,400.000000   C1.000000,275.645782 1.000000,151.291550 1.000000,26.468658  z"/>
<path fill="#F8F9FC" opacity="1.000000" stroke="none" d=" M446.187744,215.238495   C456.049377,189.862961 475.824310,177.562897 500.851196,172.356354   C520.141663,168.343201 539.244690,169.809357 558.022339,175.850632   C562.747742,177.370941 565.675964,179.834808 566.004639,185.190582   C566.432007,192.153717 567.490967,199.075806 568.056396,206.033600   C568.427856,210.603638 568.252441,210.617889 562.790771,211.056366   C562.240051,209.071457 561.638000,207.028458 561.106995,204.967178   C557.494568,190.944839 548.847046,182.249191 534.586609,178.824753   C511.065155,173.176407 485.436340,182.720291 473.699524,201.932465   C466.886841,213.084244 464.499420,225.491074 464.473969,238.271347   C464.444916,252.869705 466.769287,267.097839 473.673828,280.283936   C484.746277,301.429840 504.082245,310.363464 527.554382,308.752319   C548.840942,307.291199 560.355957,294.612396 566.745422,275.696289   C567.820862,272.512573 568.844299,269.435638 573.568726,271.945496   C572.868774,283.737183 569.741699,295.037384 565.397766,306.032349   C564.996155,307.048828 563.558228,307.953674 562.410461,308.334229   C532.544128,318.236694 502.810181,319.610870 474.166382,304.692780   C453.425598,293.890717 444.279572,275.120361 442.201111,252.561569   C441.047668,240.042267 441.514252,227.582870 446.187744,215.238495  z"/>
<path fill="#F8F9FD" opacity="1.000000" stroke="none" d=" M96.073898,195.098206   C96.052742,193.613876 96.053642,192.613480 96.015907,191.614548   C95.601089,180.632187 95.054237,180.048721 84.137413,178.897980   C79.976852,178.459427 79.976852,178.459442 80.577484,174.052460   C110.816933,174.052460 141.088669,174.052460 172.464890,174.052460   C173.195160,184.138779 173.918533,194.129623 174.626984,203.914627   C170.462845,205.760330 168.749649,205.362823 167.788895,201.374390   C163.162720,182.169922 161.024063,180.400681 141.166504,179.511169   C132.883041,179.140106 124.569115,179.449509 115.879189,179.449509   C115.879189,198.694275 115.879189,217.575928 115.879189,236.509827   C126.979988,236.509827 137.920166,236.772690 148.837830,236.391129   C153.776337,236.218536 156.411835,232.705826 156.954987,227.751877   C157.188141,225.625092 157.598679,223.517746 157.951279,221.256287   C159.703339,221.256287 161.154953,221.256287 162.945786,221.256287   C162.945786,233.754288 162.945786,246.156708 162.945786,258.824127   C161.320770,258.824127 159.895416,258.824127 158.005951,258.824127   C157.669220,256.915192 157.276245,255.009964 157.004257,253.087631   C156.002792,246.009964 153.800278,243.533081 146.769135,243.314972   C136.793793,243.005463 126.801659,243.236404 116.379257,243.236404   C116.379257,263.382111 116.379257,283.409424 116.379257,303.736389   C130.703293,306.720978 145.025101,307.721222 159.356705,303.984375   C171.097748,300.922974 175.951416,292.029449 178.083862,281.057831   C178.707031,277.851593 179.654190,275.474060 184.467575,277.684357   C183.964447,281.859863 183.723679,286.459839 182.796402,290.917023   C181.544403,296.934998 179.948395,302.902100 178.072098,308.753845   C177.643631,310.090118 175.470886,311.759644 174.092316,311.767517   C143.930267,311.940216 113.766960,311.920227 83.604279,311.820374   C82.469299,311.816620 81.338196,310.641418 80.205292,310.012115   C81.186531,309.175629 82.148964,308.315125 83.163277,307.520874   C83.394699,307.339661 83.806107,307.333405 84.133522,307.337616   C94.494308,307.470581 95.962311,305.421936 96.023766,293.569458   C96.193115,260.908020 96.079636,228.245148 96.073898,195.098206  z"/>
<path fill="#F9FAFC" opacity="1.000000" stroke="none" d=" M358.511597,220.271637   C368.784424,217.674973 378.702698,215.208984 389.489410,212.527054   C389.489410,215.757965 389.484772,217.542587 389.490112,219.327194   C389.563080,243.639130 389.636627,267.951080 389.714966,292.263000   C389.717651,293.095062 389.742828,293.929169 389.807007,294.758514   C390.459351,303.188965 391.924469,304.481567 400.187592,303.943420   C401.330719,303.868988 402.474182,303.799713 403.693085,303.723328   C404.932648,307.476410 403.268066,309.087708 400.026947,309.883728   C393.568176,311.469940 387.056152,312.904663 380.713074,314.875031   C375.960663,316.351257 373.575592,314.597565 372.239014,310.287201   C371.799683,308.870300 371.238312,307.491241 371.102692,307.116699   C361.931946,309.944916 353.150665,313.829498 344.004730,315.110840   C336.335358,316.185333 328.009338,315.191071 320.388977,313.373322   C309.410858,310.754669 304.633362,301.917786 304.125671,291.329803   C303.392548,276.041473 303.553375,260.710907 303.289246,245.399109   C303.214600,241.072296 303.156403,236.733887 302.793030,232.425903   C302.194183,225.326569 299.728058,223.675522 292.960297,225.489258   C292.182587,225.697693 291.401093,225.892044 289.014832,226.506775   C289.942749,223.951218 290.193817,221.223434 291.145660,220.951874   C301.135773,218.101791 311.238007,215.644623 322.171722,212.859085   C322.171722,216.009125 322.171814,217.792160 322.171661,219.575195   C322.170166,237.727158 322.116486,255.879395 322.206421,274.030914   C322.226959,278.180237 322.513000,282.358459 323.074127,286.469177   C324.704498,298.412018 331.487061,304.431793 344.828857,305.777313   C353.033051,306.604706 360.720703,304.526367 367.838806,300.571594   C369.069794,299.887726 370.208374,297.788208 370.214661,296.337494   C370.303192,275.855438 370.191650,255.372498 370.112915,234.889832   C370.109100,233.893707 369.994995,232.894028 369.874878,231.902969   C369.080627,225.349762 366.984131,223.782639 360.629395,225.013962   C359.666870,225.200470 358.731720,225.528122 356.401703,226.173157   C357.133759,223.766388 357.645386,222.084351 358.511597,220.271637  z"/>
<path fill="#F8F9FC" opacity="1.000000" stroke="none" d=" M702.936401,219.016266   C708.522644,223.779999 710.723694,229.916214 710.972961,236.518967   C711.531616,251.314713 711.504944,266.131561 711.892944,280.935211   C712.040710,286.574280 712.214478,292.281769 713.195068,297.812897   C714.502258,305.185547 717.578796,307.361084 725.127502,307.920654   C726.095764,307.992401 727.015564,308.718658 727.957825,309.141724   C727.455688,310.049469 727.178772,311.271271 726.417236,311.817291   C716.859375,318.670532 702.820251,316.828918 695.117188,307.421326   C686.183350,313.107849 676.203979,315.960846 665.536987,315.777802   C661.267578,315.704529 656.832336,315.239044 652.787598,313.957703   C638.965637,309.579193 633.715881,296.655090 640.150635,283.591705   C644.672852,274.411072 652.556824,268.795135 661.590271,265.044128   C670.622803,261.293488 679.992188,258.284149 689.371155,255.474838   C692.698303,254.478256 693.649353,253.013229 693.301697,249.920349   C693.078979,247.939072 693.181396,245.921906 692.971802,243.938400   C692.114197,235.823471 690.021240,228.115295 681.333191,225.224564   C672.228333,222.195145 663.467590,223.556412 656.287476,230.410522   C653.804016,232.781235 651.959534,235.851715 649.984680,238.713989   C648.687988,240.593414 647.680725,242.672577 646.553711,244.645081   C639.372803,240.880173 638.443298,236.493622 643.488953,231.093674   C657.484558,216.115234 674.513428,210.512238 694.592712,215.033966   C697.417542,215.670105 699.971619,217.508575 702.936401,219.016266  M662.531677,302.986877   C667.566895,307.703125 673.771362,308.819672 680.210510,307.894409   C685.805298,307.090454 692.241516,304.491364 692.841675,298.891357   C694.054199,287.578857 693.203186,276.045166 693.203186,264.686615   C684.152039,263.383270 672.739319,266.313263 665.835449,271.498474   C655.882935,278.973328 654.213806,292.601166 662.531677,302.986877  z"/>
<path fill="#F8FAFD" opacity="1.000000" stroke="none" d=" M288.813416,310.976013   C283.266998,314.416473 277.658997,315.940247 271.411224,315.424774   C265.244232,314.915985 260.040710,313.005371 256.647217,306.929169   C247.645004,312.642212 237.848450,315.610809 227.394165,315.328003   C222.007614,315.182281 216.304367,314.552429 211.361038,312.588623   C198.498489,307.478882 194.644958,293.720184 202.094894,281.420868   C207.928848,271.789459 217.286499,266.656342 227.326141,262.812500   C235.072037,259.846863 243.077820,257.505493 251.080795,255.294800   C253.969971,254.496750 254.941299,253.219986 254.652847,250.467636   C254.427475,248.317276 254.360931,246.150772 254.173218,243.995850   C253.459885,235.808029 251.284805,228.128174 242.631134,225.246231   C233.155457,222.090561 223.990982,223.502121 216.918961,231.109497   C213.243576,235.063110 210.551865,239.931183 207.405884,244.400223   C200.604416,240.983917 199.677551,236.659683 204.664902,231.189713   C216.973938,217.689545 232.223618,211.954666 250.378830,213.853531   C262.955536,215.168945 270.745331,222.216034 271.869110,234.810013   C272.857635,245.888214 272.679565,257.070465 273.018097,268.206726   C273.285889,277.014801 273.111786,285.864960 273.942261,294.619751   C274.883667,304.543610 277.336121,306.478729 287.123901,307.928619   C287.903412,308.044098 288.444977,309.765503 288.813416,310.976013  M227.786209,306.003204   C231.998032,306.684906 236.229416,308.032196 240.417587,307.909058   C249.007645,307.656464 254.202820,301.751587 254.202499,293.274567   C254.202271,287.294952 254.204071,281.315369 254.204620,275.335754   C254.204971,271.603851 254.204681,267.871948 254.204681,264.198456   C244.527191,263.766052 235.256241,265.969421 229.008270,269.943665   C215.290131,278.669678 214.313629,296.830719 227.786209,306.003204  z"/>
<path fill="#F8FAFD" opacity="1.000000" stroke="none" d=" M892.119751,265.001038   C889.001648,265.796631 886.284485,266.514374 883.653870,267.209229   C880.966064,296.554382 913.646057,313.017090 946.779602,298.890503   C947.693787,300.292786 948.651611,301.762024 949.923340,303.712830   C932.363770,314.756470 914.127014,318.516449 894.391296,312.188690   C882.361267,308.331573 873.500061,300.530273 868.233215,289.042694   C856.970886,264.478577 865.141052,220.275070 906.007202,213.423325   C928.731079,209.613373 946.121521,221.769470 950.059998,244.698700   C931.808716,253.828735 912.334351,259.845764 892.119751,265.001038  M923.039490,249.545792   C926.181946,248.554382 929.324402,247.562973 933.741089,246.169556   C930.697510,239.968185 928.608582,233.734604 924.932678,228.647903   C918.020447,219.082901 903.607239,217.774658 895.356506,225.762421   C886.363708,234.468689 884.910217,245.907761 884.620422,258.747772   C897.770020,255.620117 910.017761,252.706985 923.039490,249.545792  z"/>
<path fill="#FCFDFE" opacity="1.000000" stroke="none" d=" M612.308228,268.000244   C612.447327,278.324921 612.319702,288.162994 612.813721,297.969788   C613.179321,305.227661 614.407410,306.102875 621.453796,306.996185   C622.608704,307.142609 623.969360,307.004120 624.852539,307.581909   C625.747498,308.167328 626.495239,309.431122 626.645996,310.491791   C626.712158,310.957031 625.194275,311.778961 624.285461,312.202179   C623.735291,312.458313 622.973877,312.266113 622.307373,312.266144   C609.476013,312.266785 596.643555,312.343811 583.814758,312.161560   C582.309021,312.140167 580.823608,310.690247 579.328735,309.902588   C580.656250,308.980988 581.885315,307.475983 583.327271,307.232697   C592.468567,305.690338 593.540405,304.836151 593.773865,294.955383   C594.049377,283.296844 593.937561,271.627106 593.869263,259.962921   C593.712219,233.139725 593.482117,206.316986 593.268982,179.494156   C593.261047,178.496933 593.169861,177.494049 593.034363,176.505203   C592.107727,169.745056 590.066772,168.088470 583.317627,168.094208   C582.190002,168.095169 581.061462,167.007675 579.933350,166.423126   C580.641602,165.556244 581.258362,164.036041 582.072144,163.921997   C591.887756,162.546570 601.732483,161.378937 612.308228,160.065399   C612.308228,196.638290 612.308228,232.069260 612.308228,268.000244  z"/>
<path fill="#F7F9FC" opacity="1.000000" stroke="none" d=" M808.587158,216.662415   C814.311829,215.404846 819.644226,214.261566 825.599121,212.984848   C826.277344,217.490601 826.859253,221.356339 827.585022,226.177963   C838.972107,214.435730 851.208862,208.040268 867.207947,220.536285   C863.681824,224.058945 860.408386,227.591232 856.794922,230.732437   C856.011047,231.413910 853.955017,230.908203 852.574951,230.575714   C848.534302,229.602127 844.580627,228.239456 840.516846,227.395798   C833.206116,225.878082 827.950317,230.120026 827.935974,237.459961   C827.898621,256.613037 827.876526,275.766602 827.975159,294.919312   C828.026367,304.856506 829.470764,306.127014 839.460266,307.289124   C842.014709,307.586273 846.614563,306.060425 845.783203,311.919586   C828.873779,311.919586 812.263245,311.919586 795.672791,311.919586   C795.056335,307.649200 795.056335,307.649170 798.717163,307.159943   C808.317627,305.876892 809.175110,305.285706 809.248169,295.298645   C809.398010,274.816833 809.287842,254.330612 809.027710,233.849472   C808.901550,223.917282 806.323425,222.345123 796.720459,225.868759   C796.122620,224.456726 795.515503,223.022903 794.630371,220.932449   C799.397156,219.472076 803.796021,218.124405 808.587158,216.662415  z"/>
<path fill="#F6F7FA" opacity="1.000000" stroke="none" d=" M749.022217,225.768997   C745.425232,225.256699 742.100525,225.091278 737.767578,224.875687   C738.215210,223.700272 738.509888,220.915298 739.497925,220.642609   C749.514709,217.877930 759.644775,215.523438 770.557556,212.854767   C770.557556,216.047943 770.557556,217.843475 770.557556,219.639008   C770.557983,243.278030 770.553467,266.917053 770.566467,290.556061   C770.567749,292.885254 770.581787,295.221313 770.751770,297.542297   C771.308472,305.142242 772.271545,306.133423 779.909607,307.311615   C780.896545,307.463837 782.059998,307.364655 782.819580,307.867950   C783.733154,308.473297 784.912598,309.649567 784.843201,310.484467   C784.777893,311.270782 783.257935,312.527466 782.345459,312.556396   C776.358398,312.746033 770.362610,312.660675 764.369629,312.661743   C755.421204,312.663330 746.472717,312.662170 737.713501,312.662170   C736.317322,308.635742 737.668762,307.372772 741.174805,307.011749   C749.852173,306.118195 751.227722,304.875732 751.281677,296.214264   C751.412292,275.242981 751.243103,254.268921 751.025085,233.297745   C751.000122,230.898041 749.897461,228.509552 749.022217,225.768997  z"/>
<path fill="#EFF2F9" opacity="1.000000" stroke="none" d=" M561.420959,85.167038   C567.585999,85.167381 573.301208,85.167381 579.016479,85.167381   C579.079468,85.578079 579.142395,85.988777 579.205383,86.399467   C578.469788,86.799828 577.737549,87.538567 576.997986,87.546059   C571.904602,87.597679 571.380127,89.910179 572.890869,94.284691   C576.475342,104.663971 579.662354,115.180336 583.033142,125.633804   C583.524048,127.156242 584.142761,128.637466 585.180969,131.420776   C588.205017,122.795021 590.680237,115.338493 593.436218,107.987251   C596.098022,100.887398 597.604004,93.268433 601.569702,86.725159   C602.057190,86.778763 602.544617,86.832367 603.032104,86.885971   C608.483582,101.428635 613.934998,115.971298 619.934265,131.975357   C621.554993,127.087463 622.836975,123.596115 623.869507,120.032471   C626.369568,111.404030 628.588684,102.690788 631.251099,94.114182   C632.644287,89.626190 631.520569,87.451355 626.777954,87.250519   C626.201416,87.226105 625.640015,86.844238 625.158203,85.757065   C631.279663,85.757065 637.401062,85.757065 643.522522,85.757065   C635.229370,89.340851 635.314758,97.668495 632.935303,104.334129   C628.629578,116.395561 624.946289,128.678192 620.878052,140.826569   C620.284912,142.597488 619.001648,144.137268 618.037720,145.784012   C617.556641,145.657593 617.075623,145.531158 616.594543,145.404739   C611.225403,131.169891 605.856323,116.935036 599.965393,101.316765   C593.619812,116.657692 589.433594,131.466125 583.516235,145.539612   C582.883118,145.451019 582.249939,145.362442 581.616760,145.273849   C580.770447,143.049408 579.856628,140.847992 579.088745,138.596802   C574.038940,123.793152 569.169739,108.925064 563.871338,94.211380   C562.755310,91.112358 560.101562,88.567093 557.897217,85.393501   C558.421082,85.354851 559.696106,85.260780 561.420959,85.167038  z"/>
<path fill="#F2F5FA" opacity="1.000000" stroke="none" d=" M106.482353,139.715378   C112.193275,143.184006 118.007080,143.015686 123.721054,141.448929   C131.516312,139.311478 133.135437,136.832733 133.136032,128.756882   C133.136765,118.595116 133.164993,108.433228 133.124634,98.271622   C133.104675,93.249359 134.990036,87.193008 126.980019,85.683228   C134.045456,85.683228 141.110901,85.683228 148.239197,85.683228   C148.167984,86.249107 148.147034,86.813019 148.089447,86.816772   C142.076736,87.209961 141.938889,91.220428 142.020569,95.904266   C142.226761,107.728264 142.055664,119.558434 142.097946,131.385910   C142.115417,136.277466 140.538437,142.039948 148.985657,142.899002   C141.789749,145.645462 135.573364,144.623215 133.710693,142.088852   C124.787582,143.229462 116.651070,145.212494 108.552567,145.067780   C98.256371,144.883835 93.411606,139.536346 92.935326,129.319748   C92.447113,118.846886 92.655304,108.340912 92.589638,97.849236   C92.537865,89.576576 92.558731,89.576447 84.937523,85.762253   C93.081612,85.762253 100.064873,85.762253 107.048141,85.762253   C99.149765,86.902977 100.894791,92.937920 100.875351,97.914658   C100.838264,107.408485 100.433662,116.947899 101.242058,126.377480   C101.626007,130.855988 104.447945,135.125504 106.482353,139.715378  z"/>
<path fill="#F2F5FA" opacity="1.000000" stroke="none" d=" M830.298096,111.981491   C830.593445,119.206047 830.880676,126.015205 830.973816,132.826996   C831.077820,140.431824 831.001038,140.432877 837.148499,143.620697   C830.533020,143.620697 823.917603,143.620697 817.302124,143.620697   C825.167542,141.859543 823.126160,135.679581 823.167358,130.565979   C823.207642,125.575775 823.325317,120.548141 822.805237,115.600403   C822.030884,108.233582 816.138672,104.666809 809.088501,106.957832   C805.475403,108.131943 803.141113,110.233391 803.305603,114.559685   C803.533081,120.544556 803.339172,126.544731 803.366150,132.538162   C803.387634,137.302399 802.181824,142.845337 811.048950,142.280594   C810.616516,142.748810 810.184021,143.217041 809.751587,143.685257   C803.106323,143.685257 796.461060,143.685257 789.815857,143.685257   C796.803894,141.921173 795.228577,136.378143 795.288269,131.674744   C795.362244,125.848625 795.320129,120.020760 795.297791,114.193771   C795.281921,110.056503 795.971619,105.355156 788.372620,106.858391   C788.585144,106.269554 788.797668,105.680725 789.010254,105.091896   C793.327332,104.027077 797.644348,102.962257 802.374512,101.795555   C802.776550,103.561615 803.112366,105.036682 803.448853,106.514839   C818.319824,99.163429 827.015686,100.820625 830.298096,111.981491  z"/>
<path fill="#F3F6FB" opacity="1.000000" stroke="none" d=" M937.746704,117.686646   C935.958069,108.086586 931.815918,104.808868 924.329163,106.803185   C920.275391,107.883034 917.646301,109.987991 917.913086,114.866753   C918.240112,120.848152 917.988770,126.861130 917.989563,132.860458   C917.990601,140.258896 917.991577,140.258896 925.507385,143.659485   C917.533020,143.659485 910.923889,143.659485 904.314697,143.659485   C911.524170,142.315506 909.883362,136.773209 909.935486,132.170135   C910.007202,125.838326 909.879761,119.503929 909.979736,113.172897   C910.044373,109.079277 909.692688,105.570793 903.586548,106.948235   C903.637085,106.342194 903.687561,105.736145 903.738098,105.130104   C907.942139,104.065872 912.146118,103.001640 916.748230,101.836632   C917.291992,103.470924 917.730347,104.788223 918.201599,106.204475   C918.646606,106.118355 919.136658,106.109711 919.551758,105.928963   C921.981079,104.871239 924.300293,103.430664 926.826538,102.748177   C937.717285,99.805939 944.498413,104.551811 945.269775,115.686172   C945.626038,120.829704 945.463989,126.008087 945.578552,131.169754   C945.690369,136.210236 943.864868,142.275009 951.828735,143.786392   C945.238037,143.786392 938.647278,143.786392 932.056519,143.786392   C940.552856,141.407700 937.543762,134.539017 937.849487,129.120895   C938.055603,125.469536 937.820862,121.793297 937.746704,117.686646  z"/>
<path fill="#EFF2F9" opacity="1.000000" stroke="none" d=" M746.856934,140.174805   C739.647461,132.521133 737.977051,123.288681 742.007568,114.638435   C745.690979,106.733055 754.308411,101.866272 763.721863,102.375183   C773.413025,102.899094 780.485474,107.844543 783.278748,116.050446   C786.348145,125.067497 783.198181,135.965500 775.984253,141.287231   C767.812683,147.315430 756.136597,146.961868 746.856934,140.174805  M775.413086,118.432396   C774.571228,116.098808 774.068237,113.564438 772.826233,111.467865   C768.444519,104.071350 757.504517,103.338417 752.447021,109.942848   C747.177979,116.823395 747.838684,131.685532 753.695557,138.029068   C760.458313,145.353638 771.504089,143.457764 774.400696,133.987686   C775.809326,129.382431 775.282593,124.185211 775.413086,118.432396  z"/>
<path fill="#EFF2F9" opacity="1.000000" stroke="none" d=" M426.982758,103.920250   C434.233429,103.920258 441.484100,103.920258 448.782776,103.920258   C448.694794,104.738289 448.750061,105.271324 448.615570,105.324516   C442.205902,107.859871 442.211395,107.852150 444.873199,114.357094   C447.574524,120.958595 450.259247,127.566879 453.568298,135.686264   C457.061676,126.135681 460.135773,118.003685 462.893311,109.765717   C463.165100,108.953712 461.743103,107.071518 460.665619,106.442070   C459.399323,105.702316 457.650574,105.788429 456.170837,104.345566   C462.145599,104.345566 468.120361,104.345566 474.802277,104.345566   C464.457153,111.410988 462.978577,123.052605 458.170227,132.787109   C454.268036,140.687027 451.121765,148.964584 447.122467,156.810760   C444.457245,162.039658 440.359192,165.891220 432.501984,164.662476   C434.109619,162.380554 435.076233,160.332230 436.637817,158.962006   C438.615845,157.226440 441.130951,156.119232 443.320221,154.604919   C448.601135,150.952179 450.276672,147.249817 447.906067,141.302094   C443.595825,130.487823 438.889893,119.809380 433.757080,109.365204   C432.845856,107.511086 429.138428,106.807663 426.578766,106.072090   C425.072083,105.639122 423.282837,106.189438 421.555359,105.984619   C423.320923,105.087891 425.151825,104.504066 426.982758,103.920250  z"/>
<path fill="#EFF2F9" opacity="1.000000" stroke="none" d=" M300.044495,120.982208   C294.586548,122.560211 289.511261,124.038483 284.007965,125.641411   C287.653229,141.835571 298.474518,143.317795 312.384460,138.895004   C312.342957,139.495834 312.301422,140.096680 312.259888,140.697510   C310.389709,141.738342 308.625732,143.096619 306.630646,143.764099   C298.736633,146.405167 290.911072,146.636459 283.707855,141.732910   C275.715302,136.292023 273.329926,124.177299 278.103882,114.256668   C282.418274,105.291039 292.540985,100.439514 301.779846,103.054321   C303.495331,103.539833 305.590424,104.221390 306.552338,105.521339   C308.752686,108.494896 310.360596,111.906860 312.209076,115.140793   C309.837311,116.476311 307.506531,117.893044 305.078552,119.117096   C303.605774,119.859596 301.982697,120.304092 300.044495,120.982208  M302.245697,111.537788   C299.384399,106.373863 295.600403,104.481194 291.017395,105.921623   C286.471405,107.350426 283.391296,113.731071 283.901245,121.414917   C289.416565,120.016716 294.797028,118.509033 300.247711,117.324203   C303.575287,116.600861 303.622864,114.779137 302.245697,111.537788  z"/>
<path fill="#F1F4FA" opacity="1.000000" stroke="none" d=" M857.835571,105.173630   C855.649475,106.550705 852.542175,107.806587 852.361694,109.395058   C852.093811,111.752693 853.240784,115.052719 854.978516,116.669182   C857.442871,118.961693 861.011414,120.052650 864.073975,121.719757   C870.251709,125.082489 872.869019,129.699036 871.879395,135.371185   C870.950500,140.695084 866.931152,144.331375 860.347046,145.549591   C858.405518,145.908844 856.366333,145.996368 854.391663,145.878204   C844.818909,145.305267 842.173157,141.971054 843.506226,130.863739   C844.892456,132.713791 845.620789,133.884979 846.542175,134.876816   C848.950012,137.468811 851.079895,140.580048 854.005798,142.353928   C856.764526,144.026443 860.305298,143.516449 862.370667,140.305374   C864.547852,136.920380 864.044617,133.524811 861.201843,130.812820   C859.559265,129.245850 857.411926,128.177139 855.411011,127.024467   C852.968994,125.617653 850.244934,124.628410 847.989319,122.983498   C841.544128,118.283249 841.888855,108.783096 848.945007,105.144836   C852.153564,103.490417 856.259216,102.866028 859.927856,102.959000   C867.911804,103.161324 870.305359,107.731750 866.959473,116.404427   C865.238525,111.357208 864.129700,106.232956 857.835571,105.173630  z"/>
<path fill="#F0F3FA" opacity="1.000000" stroke="none" d=" M669.085815,118.604538   C667.422546,111.972473 668.915527,107.781067 673.703979,104.910973   C678.430359,102.078102 688.923584,101.571716 691.181335,105.000626   C693.019714,107.792709 692.864929,111.897240 693.593933,115.419800   C693.022034,115.583076 692.450134,115.746346 691.878235,115.909622   C691.454834,115.058220 691.025696,114.209602 690.609253,113.354813   C689.744141,111.578972 689.334167,109.149857 687.919739,108.174126   C685.786377,106.702438 682.972046,105.692444 680.409607,105.606491   C679.258850,105.567894 676.938538,108.328209 677.048767,109.661461   C677.256653,112.177467 678.222656,115.265663 679.999634,116.864624   C682.508545,119.122314 686.075867,120.178925 689.126648,121.864914   C694.889343,125.049629 697.409180,129.402618 696.699097,134.719223   C695.953735,140.299820 692.236267,144.117783 685.705688,145.327515   C682.819153,145.862213 679.719543,145.957962 676.815308,145.550507   C668.738342,144.417267 666.485596,140.567703 668.746826,130.773697   C669.948364,132.782715 670.498108,134.185928 671.455322,135.207291   C673.873047,137.787155 676.122314,140.824646 679.103088,142.490738   C681.944397,144.078903 686.091614,143.410721 687.141418,139.945450   C687.957275,137.252579 687.395996,133.282486 685.833984,130.969101   C684.246094,128.617523 680.566650,127.763878 678.015259,125.955070   C674.964417,123.792267 672.138550,121.312119 669.085815,118.604538  z"/>
<path fill="#F1F4FA" opacity="1.000000" stroke="none" d=" M357.178040,109.439148   C356.476685,113.730827 358.516571,116.175003 361.662506,117.900208   C364.724182,119.579224 367.932251,120.997299 370.955200,122.739563   C375.596466,125.414566 377.692017,129.521317 377.039978,134.876740   C376.375061,140.337799 372.971497,143.572006 367.914673,144.897583   C365.069580,145.643417 361.981750,145.991577 359.052826,145.791916   C349.716888,145.155472 347.280701,141.842651 348.659698,130.867477   C350.052795,132.661560 350.847473,133.769638 351.729156,134.803528   C353.829620,137.266739 355.582123,140.301529 358.197601,141.979156   C361.264587,143.946396 364.997040,143.849182 367.551727,140.390594   C369.840363,137.292221 369.142761,132.854126 365.751129,130.149918   C363.830902,128.618927 361.479401,127.626816 359.314819,126.404968   C357.147522,125.181587 354.768890,124.231606 352.836060,122.712440   C346.692291,117.883575 347.186920,108.776558 354.098389,105.152748   C357.165894,103.544373 361.077057,102.881607 364.592102,102.922455   C372.977997,103.019890 375.451202,107.395569 372.131104,116.676247   C370.306610,111.131989 369.169739,105.237343 362.456909,105.338951   C360.702972,105.365501 358.984711,107.748650 357.178040,109.439148  z"/>
<path fill="#F1F4FA" opacity="1.000000" stroke="none" d=" M248.891083,123.042587   C250.497498,127.030540 251.974747,130.656708 254.028687,135.698441   C257.915192,125.651192 261.278595,116.956268 264.816254,107.810913   C261.991516,106.911736 259.887238,106.241898 257.782959,105.572052   C257.797913,105.207855 257.812866,104.843651 257.827820,104.479446   C263.745300,104.479446 269.662781,104.479446 277.149048,104.479446   C268.497223,107.203880 267.638824,114.308632 264.935883,120.071182   C261.686737,126.998238 258.812103,134.100357 255.609665,141.050354   C254.837830,142.725403 253.413895,144.099991 251.675247,146.439911   C250.444977,144.074036 249.642944,142.716965 249.010437,141.285019   C245.179062,132.611206 241.576797,123.829460 237.495514,115.275803   C235.627396,111.360527 232.841965,107.882927 230.515427,104.273376   C236.159973,104.273376 243.004654,104.273376 249.936005,104.273376   C249.790558,104.834091 249.792221,105.348839 249.620285,105.415451   C242.881119,108.026085 242.873398,108.023018 245.575394,114.815422   C246.620972,117.443825 247.698792,120.059395 248.891083,123.042587  z"/>
<path fill="#F0F3FA" opacity="1.000000" stroke="none" d=" M719.389282,103.165955   C723.585999,103.007500 727.441467,102.508125 731.176147,102.975021   C737.323425,103.743530 737.844604,105.744141 733.647339,111.189987   C732.481323,110.335045 731.361267,109.388855 730.126526,108.629105   C722.888367,104.175323 714.651062,107.168907 711.945068,115.200279   C707.021423,129.814026 715.077454,141.949326 730.229126,142.766830   C731.035767,142.810349 731.832825,143.031265 732.859314,143.208420   C721.416199,150.457214 703.754822,141.829681 702.707092,128.772354   C701.705872,116.294800 707.181030,107.717850 719.389282,103.165955  z"/>
<path fill="#F1F4FA" opacity="1.000000" stroke="none" d=" M338.294861,102.870598   C341.031433,103.403572 343.369659,103.990074 346.120819,104.680153   C344.200531,109.211533 342.172150,111.089386 337.531128,109.401726   C331.874237,107.344643 330.075287,108.984215 330.054565,115.213921   C330.031830,122.035240 330.244110,128.864227 329.980652,135.675446   C329.803894,140.245804 330.834778,143.212646 336.115997,142.982910   C336.590820,142.962265 337.092743,143.565704 337.455627,145.072433   C330.804565,145.072433 324.153259,145.095505 317.503113,145.019791   C317.065826,145.014816 316.213867,143.977890 316.271454,143.889969   C316.729675,143.189743 317.319916,142.114548 317.946381,142.061539   C321.686768,141.745087 321.960266,139.167664 321.963776,136.346756   C321.973572,128.527115 321.892212,120.706429 322.000671,112.888283   C322.054443,109.013168 321.617828,105.843414 315.968079,106.951591   C316.064423,106.448792 316.160767,105.945992 316.257111,105.443184   C320.221039,104.428909 324.184937,103.414627 328.466095,102.319176   C329.149597,104.362366 329.651306,105.862183 330.114899,107.247963   C332.764069,105.775955 335.330292,104.350044 338.294861,102.870598  z"/>
<path fill="#F5F8FC" opacity="1.000000" stroke="none" d=" M426.655396,103.692780   C425.151825,104.504066 423.320923,105.087891 421.222656,105.887711   C420.201752,106.352966 419.448181,106.602211 418.160339,107.274277   C417.752197,115.463318 417.878296,123.229530 418.004395,130.995743   C418.413239,138.977203 422.240967,142.965439 431.170502,141.519608   C426.125763,145.300095 421.085815,146.376938 415.675385,144.938599   C411.241943,143.759995 410.748230,139.945892 410.726715,136.146912   C410.672150,126.519890 410.708618,116.892342 410.708618,107.212769   C407.963959,106.552238 405.812042,106.034370 403.660156,105.516495   C403.459015,105.049576 403.257874,104.582657 403.056763,104.115738   C410.303070,104.106483 411.958191,97.578629 416.893066,94.229843   C417.871155,94.469086 418.311279,94.725891 418.751404,94.982697   C418.586273,96.745361 418.421143,98.508018 417.992798,100.831802   C418.168762,101.922142 418.608002,102.451363 419.047241,102.980583   C419.214294,102.958931 419.381317,102.937279 420.027924,103.189674   C421.660431,103.416634 422.813354,103.369545 423.966248,103.322456   C424.753510,103.370071 425.540741,103.417694 426.655396,103.692780  z"/>
<path fill="#F7F9FC" opacity="1.000000" stroke="none" d=" M770.672119,183.508575   C770.568237,190.605438 768.052856,194.520493 762.795593,196.262299   C757.965759,197.862473 752.516602,196.199966 749.409119,192.178070   C746.349854,188.218658 746.087524,182.938370 748.950378,178.701233   C751.700684,174.630600 755.665710,172.833847 760.528076,173.520355   C766.091064,174.305817 769.347290,177.710800 770.672119,183.508575  z"/>
<path fill="#F2F5FA" opacity="1.000000" stroke="none" d=" M169.000702,108.922028   C168.417374,110.926994 167.407242,112.915894 167.331070,114.939941   C167.105957,120.921021 167.315063,126.916939 167.229172,132.905258   C167.160217,137.713043 166.806717,142.583023 173.652206,143.618607   C167.035294,143.618607 160.418381,143.618607 153.801453,143.618607   C161.585983,141.373245 158.927704,134.991272 159.136642,129.898254   C159.361496,124.417107 159.151108,118.919243 159.195374,113.429192   C159.227966,109.387581 159.324738,105.379997 152.748367,106.864769   C152.826324,106.281654 152.904282,105.698532 152.982224,105.115417   C157.358734,104.034897 161.735229,102.954369 166.509186,101.775711   C166.830154,103.720238 167.062897,105.130302 167.816650,106.956009   C168.558685,107.888451 168.779694,108.405243 169.000702,108.922028  z"/>
<path fill="#EBEFF8" opacity="1.000000" stroke="none" d=" M528.014160,128.235443   C526.272766,135.239441 525.034851,141.980667 522.804504,148.375778   C520.624268,154.627136 517.212036,156.302963 511.001709,155.776108   C511.240356,152.095169 511.278259,151.936768 514.386536,152.680588   C517.069763,153.322708 518.655945,152.528168 519.120422,149.863419   C521.223999,137.794525 523.270691,125.715721 525.346191,113.591713   C523.136169,112.979546 521.478516,112.520363 519.820801,112.061188   C519.809265,111.708359 519.797668,111.355522 519.786133,111.002693   C521.626953,110.628410 523.467712,110.254135 525.837097,109.772392   C526.599670,102.825928 528.631958,96.102135 535.935364,93.030434   C538.617981,91.902176 541.785278,91.926247 545.793457,91.243874   C544.710632,93.803535 544.221558,94.959763 543.707275,96.175438   C542.988159,96.054993 542.477600,96.086548 542.085876,95.886032   C537.479309,93.527847 535.417542,94.212524 534.079163,99.087265   C533.162170,102.427132 532.824097,105.925957 532.183838,109.603226   C534.951233,110.131950 537.459473,110.611160 540.080811,111.111984   C539.757263,111.727150 539.583313,112.251068 539.474060,112.237907   C531.623291,111.292542 530.454407,116.768890 529.469360,122.517357   C529.161804,124.311768 528.553711,126.054672 528.014160,128.235443  z"/>
<path fill="#F0F3FA" opacity="1.000000" stroke="none" d=" M655.138733,111.062576   C655.138794,118.379219 655.093811,125.204788 655.154236,132.029419   C655.196167,136.767914 653.338684,142.619385 662.419373,142.474808   C662.011475,142.888489 661.603577,143.302185 661.195679,143.715866   C654.618591,143.715866 648.041504,143.715866 641.464417,143.715866   C648.138611,142.350479 647.374451,137.289871 647.369385,132.732452   C647.362122,126.243393 647.117676,119.751434 647.252502,113.266495   C647.341980,108.963120 646.841492,105.575562 640.647766,106.793327   C640.758728,106.236481 640.869690,105.679634 640.980713,105.122780   C645.402039,104.031578 649.823303,102.940376 655.138733,101.628510   C655.138733,105.058876 655.138733,107.814980 655.138733,111.062576  z"/>
<path fill="#F1F4FA" opacity="1.000000" stroke="none" d=" M881.820435,107.188240   C880.069031,106.807411 878.671387,106.678886 877.273682,106.550362   C877.185608,106.104042 877.097473,105.657722 877.009338,105.211395   C881.422119,104.073601 885.834900,102.935806 891.064636,101.587349   C891.064636,110.082367 891.064636,117.854942 891.064575,125.627510   C891.064575,128.457642 891.254639,131.303574 891.021301,134.114349   C890.634766,138.769974 891.296387,142.482971 897.091003,143.509644   C890.519653,143.509644 883.948303,143.509644 877.376953,143.509644   C884.207458,142.414276 883.367859,137.255554 883.236206,132.712509   C882.992004,124.285339 882.539795,115.864197 881.820435,107.188240  z"/>
<path fill="#F5F8FC" opacity="1.000000" stroke="none" d=" M221.228455,120.998077   C221.227966,125.481796 221.263947,129.466660 221.217346,133.450562   C221.163361,138.067535 220.446625,143.080719 228.723740,142.065247   C228.340302,142.565475 227.956863,143.065704 227.573425,143.565933   C220.947052,143.565933 214.320694,143.565933 207.694321,143.565933   C214.601425,142.220963 213.573868,136.939713 213.589996,132.262924   C213.611725,125.954491 213.616470,119.645500 213.555984,113.337440   C213.517776,109.353256 213.392639,105.330658 206.945770,106.877853   C207.023270,106.346146 207.100754,105.814438 207.178253,105.282730   C211.559387,104.127777 215.940536,102.972816 221.228394,101.578835   C221.228394,108.351929 221.228394,114.425362 221.228455,120.998077  z"/>
<path fill="#F2F5FA" opacity="1.000000" stroke="none" d=" M184.999420,141.894989   C185.597824,141.124985 186.744858,140.330399 186.711624,139.588699   C186.274078,129.823090 185.670166,120.064934 184.830719,109.655487   C184.182297,108.689629 183.811081,108.373199 183.439850,108.056770   C181.188797,107.473793 178.937744,106.890823 176.343750,105.809586   C175.999832,104.538765 175.998840,103.766197 175.997849,102.993637   C187.142868,99.794838 194.042465,104.346504 194.763824,115.781982   C195.180984,122.395210 194.808960,129.054977 195.028290,135.686005   C195.089615,137.540039 195.990463,139.366302 196.754913,141.867798   C197.007584,143.031982 197.011536,143.533691 197.015503,144.035385   C193.261169,144.103745 189.506851,144.172104 185.372589,143.781860   C184.994904,142.847168 184.997162,142.371078 184.999420,141.894989  z"/>
<path fill="#F8F9FD" opacity="1.000000" stroke="none" d=" M395.144043,128.924377   C395.144012,130.574554 395.143005,131.736588 395.144135,132.898636   C395.151520,140.499741 395.151672,140.499741 401.501495,143.598740   C394.933075,143.598740 388.364624,143.598740 381.796204,143.598740   C389.238312,141.858215 387.515167,135.990356 387.559570,131.005173   C387.614227,124.863495 387.528381,118.720627 387.575073,112.578812   C387.605682,108.550774 386.708130,105.548927 381.217468,106.953438   C381.243103,106.401299 381.268707,105.849152 381.294342,105.297012   C385.624939,104.145714 389.955536,102.994415 395.144043,101.615044   C395.144043,110.991867 395.144043,119.714058 395.144043,128.924377  z"/>
<path fill="#EFF2F9" opacity="1.000000" stroke="none" d=" M500.043976,141.123459   C492.115509,141.274979 488.890686,138.088501 488.968536,130.179703   C489.056610,121.236252 495.223480,112.218414 502.963654,109.714737   C510.316498,107.336357 515.964600,111.041245 515.527893,118.741837   C515.274597,123.208244 513.252686,127.574333 511.698242,132.462769   C511.227814,133.287231 511.085815,133.634506 510.943848,133.981781   C510.072266,134.853577 509.200714,135.725372 507.822021,136.899994   C506.677338,137.111862 506.039703,137.020905 505.090637,136.885529   C509.519012,130.696274 510.440704,123.929199 509.456726,116.914566   C509.217529,115.209473 507.841492,112.740707 506.487976,112.348228   C504.787720,111.855186 502.152191,112.595299 500.658203,113.754387   C496.067596,117.315895 493.777832,131.128372 496.657684,136.149170   C497.652710,137.883987 498.907715,139.469666 500.043976,141.123459  z"/>
<path fill="#344784" opacity="1.000000" stroke="none" d=" M500.319122,141.313416   C498.907715,139.469666 497.652710,137.883987 496.657684,136.149170   C493.777832,131.128372 496.067596,117.315895 500.658203,113.754387   C502.152191,112.595299 504.787720,111.855186 506.487976,112.348228   C507.841492,112.740707 509.217529,115.209473 509.456726,116.914566   C510.440704,123.929199 509.519012,130.696274 505.090637,136.885529   C506.039703,137.020905 506.677338,137.111862 507.681274,137.176392   C505.563171,138.601074 503.078735,140.052216 500.319122,141.313416  z"/>
<path fill="#EBEFF8" opacity="1.000000" stroke="none" d=" M646.653015,86.664330   C649.049866,86.401749 651.431519,85.839668 653.213928,86.629608   C654.244446,87.086281 655.112427,90.051773 654.603455,91.294106   C653.977051,92.823395 651.991455,94.402946 650.326294,94.779137   C646.301941,95.688271 644.413940,91.741997 646.653015,86.664330  z"/>
<path fill="#EFF2F9" opacity="1.000000" stroke="none" d=" M386.339172,87.268303   C388.793457,86.720749 391.226746,85.846611 393.175446,86.475021   C394.192474,86.802986 395.165283,90.049797 394.681396,91.477943   C394.184570,92.944351 392.020050,94.451988 390.351746,94.790527   C386.747711,95.521881 385.165070,92.593254 386.339172,87.268303  z"/>
<path fill="#EBEFF8" opacity="1.000000" stroke="none" d=" M890.899780,90.795624   C887.865051,95.388947 884.059387,96.349991 882.250916,93.097015   C881.433777,91.627213 881.350647,89.090202 882.089905,87.617180   C882.712036,86.377602 885.595764,84.939201 886.440796,85.418411   C888.294739,86.469719 889.491333,88.680145 890.899780,90.795624  z"/>
<path fill="#EFF2F9" opacity="1.000000" stroke="none" d=" M221.386368,89.300797   C221.144348,93.893166 218.403427,95.718323 214.800125,94.581116   C213.381439,94.133377 212.319550,90.806587 212.195251,88.725151   C212.130646,87.643227 214.727982,85.275307 215.655624,85.491653   C217.696884,85.967690 219.441376,87.716347 221.386368,89.300797  z"/>
<path fill="#EFF2F9" opacity="1.000000" stroke="none" d=" M418.083984,130.533356   C417.878296,123.229530 417.752197,115.463318 417.877136,107.369553   C418.139984,114.718323 418.151794,122.394653 418.083984,130.533356  z"/>
<path fill="#F3F6FB" opacity="1.000000" stroke="none" d=" M175.634521,102.984116   C175.998840,103.766197 175.999832,104.538765 176.000534,105.697609   C173.878830,106.948837 171.757431,107.813782 169.318375,108.800377   C168.779694,108.405243 168.558685,107.888451 168.137634,107.169586   C170.382111,105.636543 172.826645,104.305573 175.634521,102.984116  z"/>
<path fill="#F3F6FB" opacity="1.000000" stroke="none" d=" M197.427444,144.132599   C197.011536,143.533691 197.007584,143.031982 197.003052,142.154007   C198.359360,141.993866 199.716278,142.209991 201.073181,142.426132   C201.087860,142.848114 201.102539,143.270111 201.117218,143.692093   C200.024597,143.871338 198.931992,144.050568 197.427444,144.132599  z"/>
<path fill="#F3F6FB" opacity="1.000000" stroke="none" d=" M184.609207,141.885086   C184.997162,142.371078 184.994904,142.847168 184.988831,143.680298   C183.743958,144.037354 182.502914,144.037354 181.261871,144.037354   C181.186859,143.637161 181.111847,143.236984 181.036835,142.836792   C182.097565,142.516251 183.158295,142.195724 184.609207,141.885086  z"/>
<path fill="#EFF2F9" opacity="1.000000" stroke="none" d=" M423.583557,103.205994   C422.813354,103.369545 421.660431,103.416634 420.262817,103.282700   C421.079041,103.097626 422.139954,103.093582 423.583557,103.205994  z"/>
<path fill="#EFF2F9" opacity="1.000000" stroke="none" d=" M418.871948,102.759735   C418.608002,102.451363 418.168762,101.922142 417.877502,101.193054   C418.249207,101.508430 418.472931,102.023659 418.871948,102.759735  z"/>
<path fill="#EFF2F9" opacity="1.000000" stroke="none" d=" M418.849976,94.659180   C418.311279,94.725891 417.871155,94.469086 417.202393,94.099808   C417.475006,93.690308 417.976257,93.393295 418.477478,93.096283   C418.634491,93.509407 418.791504,93.922539 418.849976,94.659180  z"/>
<path fill="#344784" opacity="1.000000" stroke="none" d=" M511.142944,133.796661   C511.085815,133.634506 511.227814,133.287231 511.625671,132.807129   C511.701721,132.986710 511.521912,133.299133 511.142944,133.796661  z"/>
<path fill="#F3F6FB" opacity="1.000000" stroke="none" d=" M183.628937,108.378334   C183.811081,108.373199 184.182297,108.689629 184.774139,109.299423   C184.602493,109.295158 184.210251,108.997528 183.628937,108.378334  z"/>
<path fill="#2E4383" opacity="1.000000" stroke="none" d=" M662.288818,302.712463   C654.213806,292.601166 655.882935,278.973328 665.835449,271.498474   C672.739319,266.313263 684.152039,263.383270 693.203186,264.686615   C693.203186,276.045166 694.054199,287.578857 692.841675,298.891357   C692.241516,304.491364 685.805298,307.090454 680.210510,307.894409   C673.771362,308.819672 667.566895,307.703125 662.288818,302.712463  z"/>
<path fill="#2E4383" opacity="1.000000" stroke="none" d=" M227.436218,305.846741   C214.313629,296.830719 215.290131,278.669678 229.008270,269.943665   C235.256241,265.969421 244.527191,263.766052 254.204681,264.198456   C254.204681,267.871948 254.204971,271.603851 254.204620,275.335754   C254.204071,281.315369 254.202271,287.294952 254.202499,293.274567   C254.202820,301.751587 249.007645,307.656464 240.417587,307.909058   C236.229416,308.032196 231.998032,306.684906 227.436218,305.846741  z"/>
<path fill="#2F4383" opacity="1.000000" stroke="none" d=" M922.652466,249.669830   C910.017761,252.706985 897.770020,255.620117 884.620422,258.747772   C884.910217,245.907761 886.363708,234.468689 895.356506,225.762421   C903.607239,217.774658 918.020447,219.082901 924.932678,228.647903   C928.608582,233.734604 930.697510,239.968185 933.741089,246.169556   C929.324402,247.562973 926.181946,248.554382 922.652466,249.669830  z"/>
<path fill="#2F4383" opacity="1.000000" stroke="none" d=" M775.522461,118.844185   C775.282593,124.185211 775.809326,129.382431 774.400696,133.987686   C771.504089,143.457764 760.458313,145.353638 753.695557,138.029068   C747.838684,131.685532 747.177979,116.823395 752.447021,109.942848   C757.504517,103.338417 768.444519,104.071350 772.826233,111.467865   C774.068237,113.564438 774.571228,116.098808 775.522461,118.844185  z"/>
<path fill="#344784" opacity="1.000000" stroke="none" d=" M302.422913,111.895569   C303.622864,114.779137 303.575287,116.600861 300.247711,117.324203   C294.797028,118.509033 289.416565,120.016716 283.901245,121.414917   C283.391296,113.731071 286.471405,107.350426 291.017395,105.921623   C295.600403,104.481194 299.384399,106.373863 302.422913,111.895569  z"/>
</svg>