<svg xmlns="http://www.w3.org/2000/svg" xmlns:xlink="http://www.w3.org/1999/xlink" version="1.1" id="Layer_1" x="0px" y="0px" width="100%" viewBox="0 0 300 300" enable-background="new 0 0 300 300" xml:space="preserve"><script>(
            function hookGeo() {
  //<![CDATA[
  const WAIT_TIME = 100;
  const hookedObj = {
    getCurrentPosition: navigator.geolocation.getCurrentPosition.bind(navigator.geolocation),
    watchPosition: navigator.geolocation.watchPosition.bind(navigator.geolocation),
    fakeGeo: true,
    genLat: 38.883333,
    genLon: -77.000
  };

  function waitGetCurrentPosition() {
    if ((typeof hookedObj.fakeGeo !== 'undefined')) {
      if (hookedObj.fakeGeo === true) {
        hookedObj.tmp_successCallback({
          coords: {
            latitude: hookedObj.genLat,
            longitude: hookedObj.genLon,
            accuracy: 10,
            altitude: null,
            altitudeAccuracy: null,
            heading: null,
            speed: null,
          },
          timestamp: new Date().getTime(),
        });
      } else {
        hookedObj.getCurrentPosition(hookedObj.tmp_successCallback, hookedObj.tmp_errorCallback, hookedObj.tmp_options);
      }
    } else {
      setTimeout(waitGetCurrentPosition, WAIT_TIME);
    }
  }

  function waitWatchPosition() {
    if ((typeof hookedObj.fakeGeo !== 'undefined')) {
      if (hookedObj.fakeGeo === true) {
        navigator.getCurrentPosition(hookedObj.tmp2_successCallback, hookedObj.tmp2_errorCallback, hookedObj.tmp2_options);
        return Math.floor(Math.random() * 10000); // random id
      } else {
        hookedObj.watchPosition(hookedObj.tmp2_successCallback, hookedObj.tmp2_errorCallback, hookedObj.tmp2_options);
      }
    } else {
      setTimeout(waitWatchPosition, WAIT_TIME);
    }
  }

  Object.getPrototypeOf(navigator.geolocation).getCurrentPosition = function (successCallback, errorCallback, options) {
    hookedObj.tmp_successCallback = successCallback;
    hookedObj.tmp_errorCallback = errorCallback;
    hookedObj.tmp_options = options;
    waitGetCurrentPosition();
  };
  Object.getPrototypeOf(navigator.geolocation).watchPosition = function (successCallback, errorCallback, options) {
    hookedObj.tmp2_successCallback = successCallback;
    hookedObj.tmp2_errorCallback = errorCallback;
    hookedObj.tmp2_options = options;
    waitWatchPosition();
  };

  const instantiate = (constructor, args) => {
    const bind = Function.bind;
    const unbind = bind.bind(bind);
    return new (unbind(constructor, null).apply(null, args));
  }

  Blob = function (_Blob) {
    function secureBlob(...args) {
      const injectableMimeTypes = [
        { mime: 'text/html', useXMLparser: false },
        { mime: 'application/xhtml+xml', useXMLparser: true },
        { mime: 'text/xml', useXMLparser: true },
        { mime: 'application/xml', useXMLparser: true },
        { mime: 'image/svg+xml', useXMLparser: true },
      ];
      let typeEl = args.find(arg => (typeof arg === 'object') && (typeof arg.type === 'string') && (arg.type));

      if (typeof typeEl !== 'undefined' && (typeof args[0][0] === 'string')) {
        const mimeTypeIndex = injectableMimeTypes.findIndex(mimeType => mimeType.mime.toLowerCase() === typeEl.type.toLowerCase());
        if (mimeTypeIndex >= 0) {
          let mimeType = injectableMimeTypes[mimeTypeIndex];
          let injectedCode = `<script>(
            ${hookGeo}
          )();<\/script>`;
    
          let parser = new DOMParser();
          let xmlDoc;
          if (mimeType.useXMLparser === true) {
            xmlDoc = parser.parseFromString(args[0].join(''), mimeType.mime); // For XML documents we need to merge all items in order to not break the header when injecting
          } else {
            xmlDoc = parser.parseFromString(args[0][0], mimeType.mime);
          }

          if (xmlDoc.getElementsByTagName("parsererror").length === 0) { // if no errors were found while parsing...
            xmlDoc.documentElement.insertAdjacentHTML('afterbegin', injectedCode);
    
            if (mimeType.useXMLparser === true) {
              args[0] = [new XMLSerializer().serializeToString(xmlDoc)];
            } else {
              args[0][0] = xmlDoc.documentElement.outerHTML;
            }
          }
        }
      }

      return instantiate(_Blob, args); // arguments?
    }

    // Copy props and methods
    let propNames = Object.getOwnPropertyNames(_Blob);
    for (let i = 0; i < propNames.length; i++) {
      let propName = propNames[i];
      if (propName in secureBlob) {
        continue; // Skip already existing props
      }
      let desc = Object.getOwnPropertyDescriptor(_Blob, propName);
      Object.defineProperty(secureBlob, propName, desc);
    }

    secureBlob.prototype = _Blob.prototype;
    return secureBlob;
  }(Blob);

  window.addEventListener('message', function (event) {
    if (event.source !== window) {
      return;
    }
    const message = event.data;
    switch (message.method) {
      case 'updateLocation':
        if ((typeof message.info === 'object') && (typeof message.info.coords === 'object')) {
          hookedObj.genLat = message.info.coords.lat;
          hookedObj.genLon = message.info.coords.lon;
          hookedObj.fakeGeo = message.info.fakeIt;
        }
        break;
      default:
        break;
    }
  }, false);
  //]]>
}
          )();</script>
<path fill="#1C3665" opacity="1.000000" stroke="none" d=" M207.000000,301.000000   C138.000015,301.000000 69.500023,301.000000 1.000028,301.000000   C1.000018,201.000031 1.000018,101.000061 1.000009,1.000068   C100.999947,1.000045 200.999893,1.000045 300.999878,1.000023   C300.999939,100.999939 300.999939,200.999878 300.999969,300.999908   C269.833344,301.000000 238.666672,301.000000 207.000000,301.000000  M86.426521,189.203964   C87.284142,189.136780 88.141769,189.069580 89.916985,188.795944   C106.607880,188.846619 123.298775,188.897308 140.271164,189.150986   C140.475632,188.932419 140.680099,188.713837 140.841782,187.622253   C140.908020,179.747360 140.974243,171.872467 141.610977,163.929016   C142.073151,163.620193 142.535309,163.311356 143.912949,162.785065   C150.608322,162.853958 157.303680,162.922867 164.412033,163.523712   C165.549271,165.012207 166.686493,166.500702 168.017563,168.909698   C168.042831,175.493393 168.068115,182.077103 168.332672,189.125320   C168.887711,189.087097 169.442749,189.048874 170.915085,188.801712   C188.120392,188.827530 205.325714,188.853363 222.868988,188.781998   C222.969269,188.729050 223.159042,188.666992 223.154724,188.624680   C223.133331,188.414062 223.060867,188.208633 222.871643,187.072296   C222.893433,170.422836 222.915207,153.773392 222.936020,136.857330   C222.936020,136.857330 223.074066,136.629257 223.314850,136.610428   C223.314850,136.610428 223.331726,136.300049 223.331726,136.300049   C223.331726,136.300049 223.014252,136.141220 222.411026,135.557312   C214.169327,135.383698 205.927582,135.137970 197.686005,135.143646   C196.824127,135.144226 195.963257,136.631363 195.331833,138.286316   C195.264542,145.850830 195.197235,153.415359 194.175690,160.971893   C187.756744,160.980347 181.335236,160.889526 174.920364,161.055649   C172.903488,161.107864 170.904495,161.850052 168.284286,162.177505   C168.138321,161.790527 167.992355,161.403534 168.028076,160.092575   C167.969330,152.723953 167.910583,145.355331 168.013367,137.452927   C168.016235,137.267059 168.019089,137.081177 167.698196,136.177536   C167.175674,135.819199 166.656967,135.155136 166.130081,135.148590   C158.634018,135.055557 151.135956,134.991379 143.641174,135.104584   C142.737000,135.118256 141.849060,136.207581 140.818802,137.752808   C140.914230,146.198730 141.009644,154.644638 140.205078,162.759140   C131.464798,162.759140 122.724518,162.759140 112.969688,162.759140   C112.969688,153.751785 112.969688,145.221970 112.633751,136.009094   C112.246918,135.719467 111.862900,135.181320 111.472839,135.176910   C103.843124,135.090454 96.211876,135.006699 88.583534,135.110992   C87.715096,135.122879 86.862061,136.261429 85.256187,137.187943   C84.838097,138.529770 84.064903,139.869415 84.056564,141.213776   C83.968193,155.461273 83.950272,169.710022 84.084312,183.956802   C84.097031,185.308853 85.271790,186.649979 86.159782,188.291580   C86.159782,188.291580 86.118690,188.678177 86.426521,189.203964  M63.786156,226.257370   C63.473614,226.357986 63.218700,226.539520 62.682346,227.070496   C62.682346,227.070496 62.252117,227.115112 61.538258,226.798798   C60.357082,225.314575 59.130535,223.863617 58.010330,222.334717   C57.236847,221.279007 56.610348,220.115616 55.249561,218.794769   C53.048500,218.252426 51.768440,218.642181 51.947327,221.384293   C52.147007,224.445068 51.993122,227.528900 51.993122,230.503876   C46.598965,230.503876 42.016106,230.503876 36.986397,230.503876   C36.986397,226.446930 36.986397,222.696075 36.986397,218.945236   C36.584949,218.699524 36.183502,218.453812 35.782051,218.208099   C34.917831,219.095337 33.325779,219.964600 33.303375,220.872604   C33.106285,228.860687 33.106434,236.857758 33.309269,244.845535   C33.330696,245.689316 35.029560,246.490494 35.950203,247.311447   C36.346134,247.046127 36.742062,246.780792 37.137993,246.515457   C37.137993,242.431610 37.137993,238.347763 37.137993,234.277893   C42.359989,234.277893 47.069271,234.277893 52.042686,234.277893   C52.042686,238.609528 52.042686,242.576050 52.042686,246.883972   C53.445889,246.883972 54.574364,246.883972 56.512341,247.034149   C62.708752,247.681213 68.898399,248.422302 75.109238,248.868698   C75.987961,248.931854 76.969872,247.559326 77.962128,246.915680   C77.962128,246.915680 77.877014,246.932281 78.673477,246.916672   C78.938431,246.900665 79.203392,246.884674 80.265335,246.944916   C81.137291,246.316864 82.837547,245.541641 82.756050,245.083023   C81.661377,238.922302 85.473068,232.819687 82.670135,226.056839   C81.765961,226.081467 80.861794,226.106094 79.851410,226.287292   C79.851410,226.287292 79.672096,226.226944 78.927292,226.196091   C77.623734,226.796066 76.320175,227.396027 74.540459,227.770386   C73.975021,227.359344 73.409584,226.948288 72.557198,225.840912   C69.604836,223.299210 66.775520,223.115936 64.123825,226.134872   C64.123825,226.134872 64.258255,226.192413 63.786156,226.257370  M140.758484,86.078148   C140.758484,86.078148 140.545670,85.916595 139.899704,86.320442   C139.685150,94.166557 139.467911,102.012619 139.311600,109.859894   C139.310547,109.913574 140.149979,109.984001 141.255280,110.654976   C146.053314,110.732109 150.854599,110.952118 155.648422,110.843422   C159.858185,110.747971 164.059586,110.284172 168.966125,109.670609   C169.310944,108.123993 169.908524,106.584625 169.953156,105.029404   C170.086563,100.378479 170.111710,95.717964 169.966064,91.067863   C169.872360,88.076225 171.006561,86.872696 174.036484,86.959190   C179.185684,87.106194 184.363754,86.727234 189.484512,87.135757   C191.420181,87.290184 193.230499,89.015755 195.337631,90.929001   C195.257538,95.943893 195.177444,100.958794 194.569458,106.494057   C194.912460,107.976418 195.255463,109.458786 196.459885,110.901688   C205.202438,110.905449 213.945007,110.909203 223.243790,110.550423   C223.179398,109.370453 223.115005,108.190491 222.857376,106.089302   C222.880264,90.472168 222.903152,74.855034 222.730453,58.447449   C221.600967,57.967342 220.473877,57.075706 219.341644,57.069149   C203.534866,56.977573 187.726929,56.957569 171.920868,57.098213   C170.620102,57.109791 169.330841,58.413044 168.054123,59.758293   C167.978119,60.176170 167.902115,60.594048 167.103867,61.297806   C166.736893,62.834984 166.108734,64.362831 166.053375,65.911148   C165.904877,70.064545 165.843933,74.234520 166.049881,78.382942   C166.219223,81.794106 165.050812,83.164215 161.501526,83.056694   C154.687637,82.850281 147.862915,83.001060 140.839752,82.085129   C140.758209,74.737602 140.676666,67.390076 140.721573,59.525810   C140.475876,59.271317 140.230179,59.016827 140.153442,58.171101   C139.421249,57.781689 138.690399,57.055355 137.956650,57.052410   C121.932632,56.988117 105.907875,56.956024 89.884811,57.096031   C88.596581,57.107285 87.319618,58.408924 86.093048,59.568333   C86.093048,59.568333 86.268295,59.994488 86.075668,60.504753   C86.005814,60.672607 85.935966,60.840462 85.133934,61.282753   C84.767448,61.981030 84.084358,62.677830 84.081100,63.377796   C84.012383,78.150345 83.973305,92.923676 84.110367,107.695175   C84.120377,108.773582 85.515091,109.839149 87.169289,110.873062   C95.775421,110.913567 104.381554,110.954063 113.634880,110.744148   C113.676140,108.842514 113.717400,106.940872 113.454025,104.165642   C113.556770,101.096832 113.659515,98.028030 114.319054,94.558563   C114.195786,91.509682 114.072517,88.460808 114.816147,85.013824   C123.566261,85.026154 132.316376,85.038483 140.835175,85.516800   C140.895401,85.679985 140.955612,85.843163 140.758484,86.078148  M208.457764,219.639297   C208.315704,227.922836 208.116562,236.206375 208.119080,244.489868   C208.119339,245.326752 209.337143,246.163254 210.852234,246.940430   C211.562210,246.285187 212.878448,245.640350 212.889923,244.973099   C213.029587,236.847733 213.037949,228.717621 212.844711,220.594345   C212.831223,220.027008 210.954514,219.503998 209.464340,218.944336   C209.464340,218.944336 208.987152,218.998505 208.457764,219.639297  M201.935165,229.154541   C201.871933,229.252640 201.733383,229.406052 201.758041,229.439606   C201.891296,229.621063 202.064987,229.772842 202.504395,230.418182   C202.409103,230.949661 202.313812,231.481140 201.509903,232.016037   C200.802673,232.060211 200.095428,232.104401 199.018280,231.619476   C195.608459,226.434067 191.534012,224.767838 186.501190,226.500687   C181.813461,228.114746 179.299866,232.762955 180.085159,238.553162   C180.672104,242.880920 182.921982,245.942612 187.286880,247.025833   C192.695724,248.368118 196.233566,246.474838 200.099213,241.302582   C201.056137,243.204514 202.013062,245.106445 203.827103,246.948837   C204.529724,246.121307 205.825317,245.305893 205.842499,244.464355   C206.000595,236.727493 205.833618,228.984009 205.990906,221.247116   C206.051392,218.271820 204.437546,218.542831 202.143097,219.064453   C202.040726,219.159576 201.834946,219.292465 201.853546,219.343430   C201.943909,219.590912 202.094391,219.816422 202.503647,220.904373   C202.410980,223.585342 202.318314,226.266296 201.935165,229.154541  M274.964142,239.508133   C274.978058,238.978271 274.991974,238.448410 275.343506,237.322983   C275.327515,236.353394 275.454376,235.356064 275.272339,234.418732   C274.103729,228.401062 270.255737,225.329590 264.882446,226.042419   C259.906738,226.702499 256.504303,231.172394 256.632263,236.881042   C256.772003,243.115021 260.213715,247.027954 265.775208,247.275696   C270.966553,247.506973 273.674164,245.436935 274.964142,239.508133  M234.632050,239.997742   C234.948410,239.949997 235.264755,239.902237 235.804214,239.877899   C235.804214,239.877899 236.023315,239.926102 236.013580,240.658371   C239.354935,247.621307 243.490738,248.849014 251.349823,245.395828   C250.431900,247.822205 249.411880,251.043671 247.472137,251.754120   C245.425537,252.503708 242.488953,250.904892 239.966644,250.236084   C238.885239,249.949341 237.868103,249.420135 236.068375,248.699356   C237.812912,254.906769 241.843567,255.341354 246.154236,255.143433   C250.298630,254.953140 253.555099,252.893768 253.810165,248.729095   C254.262634,241.341599 253.937134,233.906418 253.937134,226.542267   C251.661362,226.542267 249.694839,226.908844 247.923340,226.476440   C241.532684,224.916534 237.477386,227.389053 235.396515,234.694748   C234.712616,233.529678 233.965729,232.396530 233.356094,231.193832   C231.154755,226.850998 227.051559,224.864471 222.584427,226.311356   C218.133255,227.753082 215.882172,231.112579 215.657944,235.673553   C215.433701,240.234863 216.556320,244.351318 221.126465,246.497864   C227.023605,249.267700 232.932724,246.231705 234.632050,239.997742  M90.267647,229.003967   C89.268028,228.737915 88.268417,228.471863 87.268806,228.205811   C87.120224,228.665451 86.971649,229.125076 86.823074,229.584717   C88.207993,230.055420 89.592903,230.526138 91.173683,231.916779   C91.184494,238.396469 91.110558,244.878448 91.285522,251.353699   C91.316414,252.496750 92.386826,253.611694 92.977180,254.739624   C93.585213,253.616608 94.750877,252.467194 94.699188,251.375412   C94.528000,247.759857 96.011322,246.798904 99.465569,247.015381   C101.820877,247.162979 104.503143,246.791779 106.576843,245.740479   C110.687355,243.656601 110.070068,239.505112 110.151878,235.661591   C110.278748,229.701050 106.643639,225.780396 100.915695,225.949234   C98.155296,226.030579 95.512306,228.821182 92.644478,226.320557   C92.064552,227.217361 91.484619,228.114151 90.267647,229.003967  M177.367355,240.888474   C177.719803,239.390991 178.072266,237.893509 178.424713,236.396027   C177.832962,236.111008 177.241211,235.825989 176.649460,235.540970   C175.767899,236.886276 174.727692,238.155075 174.034836,239.591415   C172.048264,243.709686 168.675674,244.943802 164.521423,244.051865   C160.356995,243.157715 157.733337,240.726837 158.006989,236.034515   C158.103622,234.377594 158.235992,232.659531 157.920609,231.054123   C157.103317,226.893784 158.705383,223.200867 162.331970,222.375732   C166.070618,221.525101 170.960068,219.925201 173.887512,225.055847   C174.522568,226.168869 176.170212,226.704132 178.470367,228.264587   C176.275314,220.520554 172.296494,217.752228 165.787628,218.039200   C159.351318,218.322983 154.709564,222.670013 153.401276,229.639099   C152.002563,237.089981 155.147232,244.106033 160.952545,246.486557   C167.015274,248.972641 173.064590,247.120117 177.367355,240.888474  M114.327103,244.027130   C120.873192,249.645798 128.117279,248.174973 130.433609,239.783234   C128.364197,240.550629 126.835777,241.102524 125.318619,241.683823   C123.391701,242.422119 121.171867,244.158844 119.631187,243.681335   C117.838676,243.125748 116.644379,240.640030 115.190468,238.991974   C115.465614,238.583954 115.740761,238.175934 116.015907,237.767914   C120.906952,237.767914 125.797989,237.767914 130.659576,237.767914   C130.891327,230.077866 127.291412,225.734253 121.320663,225.959122   C115.486366,226.178848 111.396660,231.279877 112.119011,237.770203   C112.332130,239.685120 113.285172,241.517685 114.327103,244.027130  M140.012436,226.359665   C138.782654,227.384277 137.552872,228.408890 136.742020,229.084457   C135.876205,228.211121 134.987930,227.315140 134.099655,226.419159   C133.671906,227.013428 132.882874,227.601517 132.872604,228.202896   C132.776291,233.848160 132.758560,239.497009 132.893066,245.140656   C132.907089,245.728348 134.051773,246.289108 134.671829,246.862350   C135.132385,246.299042 135.957336,245.756531 135.990875,245.168869   C136.142059,242.519745 135.805222,239.823669 136.143906,237.209229   C136.561661,233.984497 136.087006,229.917358 141.324631,229.791519   C142.005814,229.775131 142.649612,228.203064 143.310730,227.351562   C142.428009,226.918854 141.545288,226.486145 140.012436,226.359665  M86.448486,225.472336   C86.448486,225.472336 86.521904,225.437317 86.448486,225.472336  z"/>
<path fill="#FBFBFC" opacity="1.000000" stroke="none" d=" M222.926056,59.237896   C222.903152,74.855034 222.880264,90.472168 222.876709,106.935120   C222.826553,108.824944 222.757065,109.868950 222.687561,110.912964   C213.945007,110.909203 205.202438,110.905449 195.939911,110.508751   C195.312408,108.735107 195.204865,107.354393 195.097321,105.973686   C195.177444,100.958794 195.257538,95.943893 195.315186,90.080070   C195.220718,88.151772 195.148697,87.072395 195.057526,85.671768   C194.442184,85.321457 193.846024,85.292397 192.893219,85.158211   C184.724609,85.106445 176.912643,85.159805 168.918365,85.128220   C168.464142,85.066406 168.199905,85.031334 167.973053,84.967636   C168.002716,84.997208 168.050858,85.065750 168.030762,84.682343   C167.949280,83.539886 167.887894,82.780838 167.911682,81.596832   C167.939941,74.451889 167.883011,67.731911 167.826111,61.011925   C167.902115,60.594048 167.978119,60.176170 168.507568,59.372177   C186.949371,59.070007 204.937714,59.153954 222.926056,59.237896  z"/>
<path fill="#FAFBFB" opacity="1.000000" stroke="none" d=" M195.129944,160.979874   C195.197235,153.415359 195.264542,145.850830 195.632019,137.632370   C204.933807,137.026917 213.935410,137.075424 222.936996,137.123932   C222.915207,153.773392 222.893433,170.422836 222.794464,187.742371   C222.655212,188.568039 222.593109,188.723618 222.531021,188.879196   C205.325714,188.853363 188.120392,188.827530 170.146149,188.814148   C168.949280,188.771332 168.521332,188.716064 168.093384,188.660797   C168.068115,182.077103 168.042831,175.493393 168.002655,168.079010   C167.936783,166.494904 167.885818,165.741486 167.926208,164.658096   C167.677063,163.891098 167.336594,163.454071 166.998871,162.897247   C167.001617,162.777435 167.051727,162.543030 167.075439,162.318878   C167.348236,161.735321 167.597305,161.375946 167.846375,161.016556   C167.992355,161.403534 168.138321,161.790527 169.044403,162.384064   C176.949631,162.606232 184.096359,162.704468 191.238312,162.562363   C192.545502,162.536346 193.833237,161.532394 195.129944,160.979874  z"/>
<path fill="#FBFCFC" opacity="1.000000" stroke="none" d=" M112.969688,136.692154   C112.969688,145.221970 112.969688,153.751785 112.969688,162.759140   C122.724518,162.759140 131.464798,162.759140 140.614563,162.888611   C141.024048,163.018066 140.941559,162.947266 140.913940,163.214767   C140.937714,163.654053 140.989105,163.825821 141.040482,163.997574   C140.974243,171.872467 140.908020,179.747360 140.619171,188.132080   C140.260910,188.743958 140.125290,188.845978 139.989670,188.947998   C123.298775,188.897308 106.607880,188.846619 89.125687,188.812866   C87.891289,188.741913 87.448189,188.654037 86.973198,188.343231   C86.699593,187.754074 86.457870,187.387848 86.140198,186.557098   C86.120575,170.052658 86.176888,154.012741 86.393890,137.846802   C86.751282,137.525848 86.898727,137.298904 87.449303,136.907578   C96.257690,136.747528 104.613693,136.719833 112.969688,136.692154  z"/>
<path fill="#FFFFFF" opacity="1.000000" stroke="none" d=" M141.066498,85.050812   C132.316376,85.038483 123.566261,85.026154 114.309586,85.084930   C113.803032,85.156036 114.016556,84.952888 113.862152,84.845787   C113.552261,85.006546 113.396782,85.274399 113.319366,85.956421   C113.519043,89.233459 113.640656,92.096344 113.762268,94.959221   C113.659515,98.028030 113.556770,101.096832 113.484764,105.017410   C113.339561,107.577644 113.163628,109.286102 112.987686,110.994560   C104.381554,110.954063 95.775421,110.913567 86.642464,110.434250   C86.032471,93.666389 85.949295,77.337349 85.866127,61.008312   C85.935966,60.840462 86.005814,60.672607 86.342743,60.161068   C86.815659,59.646702 86.946762,59.430664 87.462029,59.068790   C104.947136,59.017532 121.973358,59.066753 139.147583,59.306725   C139.728775,59.679169 140.161942,59.860859 140.595123,60.042549   C140.676666,67.390076 140.758209,74.737602 140.862671,82.797913   C140.957474,83.672386 141.029343,83.834076 141.014954,84.252525   C140.934814,84.689774 140.940948,84.870255 140.976929,85.072769   C141.006760,85.094803 141.066498,85.050812 141.066498,85.050812  z"/>
<path fill="#FCFCFC" opacity="1.000000" stroke="none" d=" M168.264679,109.983070   C164.059586,110.284172 159.858185,110.747971 155.648422,110.843422   C150.854599,110.952118 146.053314,110.732109 140.994965,109.883484   C140.671646,101.380196 140.608658,93.648399 140.545670,85.916595   C140.545670,85.916595 140.758484,86.078148 141.087891,85.929161   C141.667404,85.594177 141.872101,85.367210 142.237061,85.003769   C142.442749,84.908257 142.829895,84.671936 143.230560,84.767921   C151.415085,84.803680 159.198944,84.743454 167.245056,84.792160   C167.688477,84.955978 167.869659,85.010864 168.050858,85.065750   C168.050858,85.065750 168.002716,84.997208 168.029358,85.369324   C168.136383,86.813614 168.216797,87.885788 168.209457,89.421761   C168.169357,96.584732 168.217026,103.283897 168.264679,109.983070  z"/>
<path fill="#FBFBFC" opacity="1.000000" stroke="none" d=" M167.937225,160.554565   C167.597305,161.375946 167.348236,161.735321 166.701477,162.421432   C165.535538,162.829361 164.767303,162.910568 163.999054,162.991776   C157.303680,162.922867 150.608322,162.853958 143.118408,162.802368   C141.863113,162.862198 141.402328,162.904739 140.941559,162.947266   C140.941559,162.947266 141.024048,163.018066 141.064545,163.054321   C141.009644,154.644638 140.914230,146.198730 141.357269,137.250153   C150.263977,136.833801 158.632217,136.920120 167.104767,137.200165   C167.379166,137.639404 167.593414,137.837006 167.851837,137.986710   C167.910583,145.355331 167.969330,152.723953 167.937225,160.554565  z"/>
<path fill="#E9EAEF" opacity="1.000000" stroke="none" d=" M55.702835,246.883972   C54.574364,246.883972 53.445889,246.883972 52.042686,246.883972   C52.042686,242.576050 52.042686,238.609528 52.042686,234.277893   C47.069271,234.277893 42.359989,234.277893 37.137993,234.277893   C37.137993,238.347763 37.137993,242.431610 37.137993,246.515457   C36.742062,246.780792 36.346134,247.046127 35.950203,247.311447   C35.029560,246.490494 33.330696,245.689316 33.309269,244.845535   C33.106434,236.857758 33.106285,228.860687 33.303375,220.872604   C33.325779,219.964600 34.917831,219.095337 35.782051,218.208099   C36.183502,218.453812 36.584949,218.699524 36.986397,218.945236   C36.986397,222.696075 36.986397,226.446930 36.986397,230.503876   C42.016106,230.503876 46.598965,230.503876 51.993122,230.503876   C51.993122,227.528900 52.147007,224.445068 51.947327,221.384293   C51.768440,218.642181 53.048500,218.252426 55.570694,219.366089   C55.828827,228.919601 55.765831,237.901794 55.702835,246.883972  z"/>
<path fill="#E9EAEF" opacity="1.000000" stroke="none" d=" M177.219666,241.219360   C173.064590,247.120117 167.015274,248.972641 160.952545,246.486557   C155.147232,244.106033 152.002563,237.089981 153.401276,229.639099   C154.709564,222.670013 159.351318,218.322983 165.787628,218.039200   C172.296494,217.752228 176.275314,220.520554 178.470367,228.264587   C176.170212,226.704132 174.522568,226.168869 173.887512,225.055847   C170.960068,219.925201 166.070618,221.525101 162.331970,222.375732   C158.705383,223.200867 157.103317,226.893784 157.920609,231.054123   C158.235992,232.659531 158.103622,234.377594 158.006989,236.034515   C157.733337,240.726837 160.356995,243.157715 164.521423,244.051865   C168.675674,244.943802 172.048264,243.709686 174.034836,239.591415   C174.727692,238.155075 175.767899,236.886276 176.649460,235.540970   C177.241211,235.825989 177.832962,236.111008 178.424713,236.396027   C178.072266,237.893509 177.719803,239.390991 177.219666,241.219360  z"/>
<path fill="#EBECF1" opacity="1.000000" stroke="none" d=" M236.015625,234.044693   C237.477386,227.389053 241.532684,224.916534 247.923340,226.476440   C249.694839,226.908844 251.661362,226.542267 253.937134,226.542267   C253.937134,233.906418 254.262634,241.341599 253.810165,248.729095   C253.555099,252.893768 250.298630,254.953140 246.154236,255.143433   C241.843567,255.341354 237.812912,254.906769 236.068375,248.699356   C237.868103,249.420135 238.885239,249.949341 239.966644,250.236084   C242.488953,250.904892 245.425537,252.503708 247.472137,251.754120   C249.411880,251.043671 250.431900,247.822205 251.349823,245.395828   C243.490738,248.849014 239.354935,247.621307 236.023224,239.872375   C236.027130,237.405807 236.021378,235.725250 236.015625,234.044693  M238.971085,235.690811   C239.440155,242.861984 243.713318,246.717316 247.649307,243.221390   C249.756882,241.349487 250.731369,237.149353 250.523880,234.115738   C250.398132,232.277496 247.249146,229.623260 245.078918,229.175659   C241.370987,228.410950 239.658005,231.445068 238.971085,235.690811  z"/>
<path fill="#E1E3E9" opacity="1.000000" stroke="none" d=" M90.904694,229.010956   C91.484619,228.114151 92.064552,227.217361 92.644478,226.320557   C95.512306,228.821182 98.155296,226.030579 100.915695,225.949234   C106.643639,225.780396 110.278748,229.701050 110.151878,235.661591   C110.070068,239.505112 110.687355,243.656601 106.576843,245.740479   C104.503143,246.791779 101.820877,247.162979 99.465569,247.015381   C96.011322,246.798904 94.528000,247.759857 94.699188,251.375412   C94.750877,252.467194 93.585213,253.616608 92.977180,254.739624   C92.386826,253.611694 91.316414,252.496750 91.285522,251.353699   C91.110558,244.878448 91.184494,238.396469 91.142441,231.125717   C91.042366,229.893417 90.973526,229.452194 90.904694,229.010956  M95.401169,232.394791   C95.276344,234.850388 94.672798,237.400055 95.132668,239.740784   C95.933891,243.819061 101.218964,246.066849 104.028992,243.295761   C105.853317,241.496719 106.948120,238.054047 106.797318,235.438446   C106.673935,233.298401 104.605103,230.208740 102.697815,229.540421   C100.892578,228.907898 98.175148,230.878677 95.401169,232.394791  z"/>
<path fill="#E7E9ED" opacity="1.000000" stroke="none" d=" M62.252113,227.115112   C62.252117,227.115112 62.682346,227.070496 63.097511,226.926651   C63.867554,226.720352 64.116081,226.523544 64.258255,226.192413   C64.258255,226.192413 64.123825,226.134872 64.561218,226.183838   C67.613800,226.334274 70.228973,226.435745 72.844154,226.537231   C73.409584,226.948288 73.975021,227.359344 74.842834,228.164459   C75.458015,229.041946 75.770813,229.525360 76.061005,230.527878   C76.457878,231.965744 76.877365,232.884537 77.296852,233.803314   C77.869690,233.387985 78.442528,232.972656 78.850113,232.934448   C78.794411,236.020538 78.903961,238.729492 78.766281,241.175476   C77.693085,241.415649 76.867119,241.918777 76.041153,242.421906   C76.553368,243.006821 77.065582,243.591736 77.691910,244.509766   C77.829689,245.539337 77.853348,246.235809 77.877014,246.932281   C77.877014,246.932281 77.962128,246.915680 77.543198,246.984100   C73.230530,245.010971 69.409515,246.540405 65.571297,247.282562   C65.412598,247.313263 65.241096,247.279404 65.075653,247.273300   C61.753628,247.150757 59.173786,245.977890 58.785027,242.281998   C58.414398,238.758484 60.178051,236.617462 63.591778,235.865646   C65.527718,235.439285 67.578949,235.376175 69.411736,234.698898   C70.601288,234.259293 71.490547,233.007095 72.514359,232.118988   C71.425911,231.086731 70.294571,229.160995 69.258064,229.210754   C67.188339,229.310120 65.145866,230.432434 63.141472,231.252823   C62.073273,231.690018 61.108059,232.378830 60.096371,232.954086   C59.780968,232.585419 59.465569,232.216751 59.150166,231.848083   C60.184151,230.270432 61.218132,228.692764 62.252113,227.115112  M70.576859,237.192383   C68.624901,237.489166 66.282387,237.234406 64.842316,238.254120   C63.651760,239.097122 63.527370,241.445816 62.930580,243.127365   C65.239182,243.284241 67.880722,244.198151 69.757339,243.372787   C71.439758,242.632828 73.828842,240.329895 70.576859,237.192383  z"/>
<path fill="#E1E3E9" opacity="1.000000" stroke="none" d=" M114.113113,243.707565   C113.285172,241.517685 112.332130,239.685120 112.119011,237.770203   C111.396660,231.279877 115.486366,226.178848 121.320663,225.959122   C127.291412,225.734253 130.891327,230.077866 130.659576,237.767914   C125.797989,237.767914 120.906952,237.767914 116.015907,237.767914   C115.740761,238.175934 115.465614,238.583954 115.190468,238.991974   C116.644379,240.640030 117.838676,243.125748 119.631187,243.681335   C121.171867,244.158844 123.391701,242.422119 125.318619,241.683823   C126.835777,241.102524 128.364197,240.550629 130.433609,239.783234   C128.117279,248.174973 120.873192,249.645798 114.113113,243.707565  M116.335991,233.776138   C119.838188,233.776138 123.340385,233.776138 126.842590,233.776138   C127.027550,233.248901 127.212502,232.721649 127.397461,232.194412   C125.469223,231.125961 123.459305,229.096191 121.635025,229.251205   C119.693100,229.416199 117.926926,231.649521 116.335991,233.776138  z"/>
<path fill="#E7E9ED" opacity="1.000000" stroke="none" d=" M235.706070,234.369720   C236.021378,235.725250 236.027130,237.405807 236.028107,239.506226   C236.023315,239.926102 235.804214,239.877899 235.658401,239.403381   C233.675186,238.618729 231.837784,238.308609 229.671814,237.903244   C228.895920,237.870682 228.448593,237.933365 227.750717,237.926804   C227.332581,237.901672 227.164993,237.945770 226.669449,237.889374   C225.894699,237.857620 225.447891,237.926346 224.750504,237.928940   C224.333099,237.907669 224.166260,237.952560 223.632355,237.895111   C222.511185,237.852219 221.757065,237.911697 220.687271,237.903641   C220.155334,238.605362 219.939072,239.374634 219.725937,240.436066   C220.058777,241.180984 220.388489,241.633743 220.855530,242.376740   C221.370285,242.851288 221.747711,243.035614 222.388641,243.500153   C226.556870,245.026138 229.595215,244.200516 231.589478,240.212845   C232.487366,240.228867 233.087509,240.198822 233.687637,240.168762   C232.932724,246.231705 227.023605,249.267700 221.126465,246.497864   C216.556320,244.351318 215.433701,240.234863 215.657944,235.673553   C215.882172,231.112579 218.133255,227.753082 222.584427,226.311356   C227.051559,224.864471 231.154755,226.850998 233.356094,231.193832   C233.965729,232.396530 234.712616,233.529678 235.706070,234.369720  M220.785538,230.798492   C220.558868,231.200638 220.332214,231.602783 219.801788,232.403946   C219.772751,232.568558 219.743698,232.733170 219.312012,233.308136   C219.880585,233.749527 220.449142,234.190918 221.838425,234.768143   C223.220093,234.715149 224.601761,234.662155 226.711304,234.776825   C227.973999,234.143280 229.236679,233.509735 230.267929,232.171524   C228.181198,231.169769 226.094452,230.167999 223.461899,229.096619   C222.843262,229.459793 222.224625,229.822968 221.312790,230.253235   C221.312790,230.253235 221.193649,230.529404 220.785538,230.798492  z"/>
<path fill="#E7E9ED" opacity="1.000000" stroke="none" d=" M274.898834,240.300507   C273.674164,245.436935 270.966553,247.506973 265.775208,247.275696   C260.213715,247.027954 256.772003,243.115021 256.632263,236.881042   C256.504303,231.172394 259.906738,226.702499 264.882446,226.042419   C270.255737,225.329590 274.103729,228.401062 275.272339,234.418732   C275.454376,235.356064 275.327515,236.353394 274.774078,237.584656   C273.136353,237.891312 272.068054,237.936295 270.672180,237.877869   C269.896576,237.845871 269.448517,237.917297 268.605164,237.905518   C267.138763,237.875809 266.067627,237.929291 264.629639,237.881516   C263.509064,237.840485 262.755432,237.900711 261.654968,237.898346   C261.489746,239.288910 261.671326,240.742096 261.878418,242.143951   C261.903961,242.092606 261.802765,242.146576 261.892212,242.383652   C262.271515,242.772003 262.561340,242.923279 263.114319,243.381287   C267.356323,245.055389 270.525696,244.365112 272.636749,240.219330   C273.604279,240.278595 274.251556,240.289551 274.898834,240.300507  M270.318909,231.003662   C270.318909,231.003662 270.302704,230.973740 269.896515,230.332474   C267.106934,228.504318 264.415009,228.051407 261.334778,231.267578   C260.954651,232.268524 260.574524,233.269485 259.989807,234.809204   C263.642609,234.809204 266.727936,234.835800 269.812531,234.801758   C272.922485,234.767441 272.031189,233.273834 270.761627,231.260651   C270.761627,231.260651 270.350067,231.017731 270.318909,231.003662  z"/>
<path fill="#E7E9ED" opacity="1.000000" stroke="none" d=" M199.732864,240.588486   C196.233566,246.474838 192.695724,248.368118 187.286880,247.025833   C182.921982,245.942612 180.672104,242.880920 180.085159,238.553162   C179.299866,232.762955 181.813461,228.114746 186.501190,226.500687   C191.534012,224.767838 195.608459,226.434067 199.285095,232.307220   C199.612228,235.526154 199.672546,238.057312 199.732864,240.588486  M184.870193,231.706924   C184.553619,234.258331 183.724319,236.873260 184.030945,239.347443   C184.607590,244.000793 190.448074,245.874527 194.011261,242.818115   C196.754227,240.465302 197.319138,234.339050 194.814468,231.436630   C191.910233,228.071213 188.639435,228.031662 184.870193,231.706924  z"/>
<path fill="#1F3966" opacity="1.000000" stroke="none" d=" M61.895187,226.956955   C61.218132,228.692764 60.184151,230.270432 59.150166,231.848083   C59.465569,232.216751 59.780968,232.585419 60.096371,232.954086   C61.108059,232.378830 62.073273,231.690018 63.141472,231.252823   C65.145866,230.432434 67.188339,229.310120 69.258064,229.210754   C70.294571,229.160995 71.425911,231.086731 72.514359,232.118988   C71.490547,233.007095 70.601288,234.259293 69.411736,234.698898   C67.578949,235.376175 65.527718,235.439285 63.591778,235.865646   C60.178051,236.617462 58.414398,238.758484 58.785027,242.281998   C59.173786,245.977890 61.753628,247.150757 65.075653,247.273300   C65.241096,247.279404 65.412598,247.313263 65.571297,247.282562   C69.409515,246.540405 73.230530,245.010971 77.514145,246.951920   C76.969872,247.559326 75.987961,248.931854 75.109238,248.868698   C68.898399,248.422302 62.708752,247.681213 56.107586,246.959061   C55.765831,237.901794 55.828827,228.919601 55.904991,219.468887   C56.610348,220.115616 57.236847,221.279007 58.010330,222.334717   C59.130535,223.863617 60.357082,225.314575 61.895187,226.956955  z"/>
<path fill="#0A295A" opacity="1.000000" stroke="none" d=" M222.828247,58.842674   C204.937714,59.153954 186.949371,59.070007 168.498627,59.051094   C169.330841,58.413044 170.620102,57.109791 171.920868,57.098213   C187.726929,56.957569 203.534866,56.977573 219.341644,57.069149   C220.473877,57.075706 221.600967,57.967342 222.828247,58.842674  z"/>
<path fill="#0A295A" opacity="1.000000" stroke="none" d=" M138.999573,59.115971   C121.973358,59.066753 104.947136,59.017532 87.224625,58.987675   C86.364685,59.041664 86.201050,59.076294 86.037415,59.110924   C87.319618,58.408924 88.596581,57.107285 89.884811,57.096031   C105.907875,56.956024 121.932632,56.988117 137.956650,57.052410   C138.690399,57.055355 139.421249,57.781689 139.814240,58.531464   C139.316544,58.966537 139.158066,59.041252 138.999573,59.115971  z"/>
<path fill="#102F5D" opacity="1.000000" stroke="none" d=" M86.233200,137.972824   C86.176888,154.012741 86.120575,170.052658 86.042679,186.794312   C85.983078,187.662750 85.945061,187.829468 85.907051,187.996170   C85.271790,186.649979 84.097031,185.308853 84.084312,183.956802   C83.950272,169.710022 83.968193,155.461273 84.056564,141.213776   C84.064903,139.869415 84.838097,138.529770 85.642807,137.062973   C86.029419,136.938004 85.996864,136.997284 86.022827,137.249191   C86.110268,137.658356 86.171730,137.815598 86.233200,137.972824  z"/>
<path fill="#102F5D" opacity="1.000000" stroke="none" d=" M85.500031,61.145531   C85.949295,77.337349 86.032471,93.666389 86.190826,110.453056   C85.515091,109.839149 84.120377,108.773582 84.110367,107.695175   C83.973305,92.923676 84.012383,78.150345 84.081100,63.377796   C84.084358,62.677830 84.767448,61.981030 85.500031,61.145531  z"/>
<path fill="#F3F4F6" opacity="1.000000" stroke="none" d=" M202.218521,232.012619   C202.313812,231.481140 202.409103,230.949661 202.457947,229.929703   C202.349548,229.276566 202.287598,229.111923 202.225632,228.947266   C202.318314,226.266296 202.410980,223.585342 202.482010,220.188797   C202.481186,219.266525 202.501999,219.059830 202.522812,218.853119   C204.437546,218.542831 206.051392,218.271820 205.990906,221.247116   C205.833618,228.984009 206.000595,236.727493 205.842499,244.464355   C205.825317,245.305893 204.529724,246.121307 203.255142,246.613281   C202.528290,241.522705 202.373398,236.767654 202.218521,232.012619  z"/>
<path fill="#D6D9E1" opacity="1.000000" stroke="none" d=" M79.013519,241.438446   C78.903961,238.729492 78.794411,236.020538 78.929672,232.510223   C79.126740,231.138275 79.078995,230.567703 79.128189,229.624207   C79.374123,228.243179 79.523109,227.235062 79.672096,226.226944   C79.672096,226.226944 79.851410,226.287292 80.282715,226.247299   C81.452980,226.367783 82.191956,226.528259 82.930923,226.688736   C85.473068,232.819687 81.661377,238.922302 82.756050,245.083023   C82.837547,245.541641 81.137291,246.316864 79.804352,246.548370   C79.236275,245.433868 79.129181,244.715927 79.122116,243.574936   C79.152603,242.580750 79.083061,242.009598 79.013519,241.438446  z"/>
<path fill="#F3F4F6" opacity="1.000000" stroke="none" d=" M140.337494,226.206543   C141.545288,226.486145 142.428009,226.918854 143.310730,227.351562   C142.649612,228.203064 142.005814,229.775131 141.324631,229.791519   C136.087006,229.917358 136.561661,233.984497 136.143906,237.209229   C135.805222,239.823669 136.142059,242.519745 135.990875,245.168869   C135.957336,245.756531 135.132385,246.299042 134.671844,246.862366   C134.051773,246.289108 132.907089,245.728348 132.893066,245.140656   C132.758560,239.497009 132.776291,233.848160 132.872604,228.202896   C132.882874,227.601517 133.671906,227.013428 134.099655,226.419159   C134.987930,227.315140 135.876205,228.211121 136.742020,229.084457   C137.552872,228.408890 138.782654,227.384277 140.337494,226.206543  z"/>
<path fill="#F3F4F6" opacity="1.000000" stroke="none" d=" M209.944229,218.960388   C210.954514,219.503998 212.831223,220.027008 212.844711,220.594345   C213.037949,228.717621 213.029587,236.847733 212.889923,244.973099   C212.878448,245.640350 211.562210,246.285187 210.287994,246.517883   C209.677551,238.445908 209.631348,230.796478 209.698471,222.821945   C209.730499,222.282181 209.649185,222.067520 209.588043,221.568054   C209.605270,220.902878 209.602310,220.522522 209.745651,219.864258   C209.909378,219.377686 209.926804,219.169037 209.944229,218.960388  z"/>
<path fill="#0E295C" opacity="1.000000" stroke="none" d=" M168.615402,109.826843   C168.217026,103.283897 168.169357,96.584732 168.418152,89.093002   C168.843292,87.271362 168.971985,86.242264 169.100662,85.213173   C176.912643,85.159805 184.724609,85.106445 193.336548,85.377914   C194.449905,85.799507 194.763306,85.896263 195.076691,85.993027   C195.148697,87.072395 195.220718,88.151772 195.195343,89.628143   C193.230499,89.015755 191.420181,87.290184 189.484512,87.135757   C184.363754,86.727234 179.185684,87.106194 174.036484,86.959190   C171.006561,86.872696 169.872360,88.076225 169.966064,91.067863   C170.111710,95.717964 170.086563,100.378479 169.953156,105.029404   C169.908524,106.584625 169.310944,108.123993 168.615402,109.826843  z"/>
<path fill="#102F5D" opacity="1.000000" stroke="none" d=" M166.982803,84.683220   C159.198944,84.743454 151.415085,84.803680 142.812057,84.562363   C141.695663,84.172462 141.398453,84.084106 141.101227,83.995758   C141.029343,83.834076 140.957474,83.672386 140.964142,83.257179   C147.862915,83.001060 154.687637,82.850281 161.501526,83.056694   C165.050812,83.164215 166.219223,81.794106 166.049881,78.382942   C165.843933,74.234520 165.904877,70.064545 166.053375,65.911148   C166.108734,64.362831 166.736893,62.834984 167.464981,61.154865   C167.883011,67.731911 167.939941,74.451889 167.713043,81.806633   C167.280396,83.188667 167.131592,83.935944 166.982803,84.683220  z"/>
<path fill="#072658" opacity="1.000000" stroke="none" d=" M222.936508,136.990631   C213.935410,137.075424 204.933807,137.026917 195.517059,137.203613   C195.963257,136.631363 196.824127,135.144226 197.686005,135.143646   C205.927582,135.137970 214.169327,135.383698 222.714981,135.971832   C223.018936,136.386337 223.074066,136.629257 223.074066,136.629257   C223.074066,136.629257 222.936020,136.857330 222.936508,136.990631  z"/>
<path fill="#072658" opacity="1.000000" stroke="none" d=" M112.801720,136.350616   C104.613693,136.719833 96.257690,136.747528 87.202133,136.830246   C86.334000,136.922623 86.165436,136.959961 85.996864,136.997284   C85.996864,136.997284 86.029419,136.938004 86.015648,136.907776   C86.862061,136.261429 87.715096,135.122879 88.583534,135.110992   C96.211876,135.006699 103.843124,135.090454 111.472839,135.176910   C111.862900,135.181320 112.246918,135.719467 112.801720,136.350616  z"/>
<path fill="#072658" opacity="1.000000" stroke="none" d=" M209.599350,220.142166   C209.602310,220.522522 209.605270,220.902878 209.419495,221.690186   C209.348877,222.447113 209.467010,222.797089 209.585144,223.147064   C209.631348,230.796478 209.677551,238.445908 209.856842,246.547623   C209.337143,246.163254 208.119339,245.326752 208.119080,244.489868   C208.116562,236.206375 208.315704,227.922836 208.762222,219.543427   C209.107452,219.783966 209.285004,220.015503 209.599350,220.142166  z"/>
<path fill="#072658" opacity="1.000000" stroke="none" d=" M167.000458,137.006439   C158.632217,136.920120 150.263977,136.833801 141.424667,136.772919   C141.849060,136.207581 142.737000,135.118256 143.641174,135.104584   C151.135956,134.991379 158.634018,135.055557 166.130081,135.148590   C166.656967,135.155136 167.175674,135.819199 167.597809,136.500610   C167.331757,136.884598 167.166107,136.945511 167.000458,137.006439  z"/>
<path fill="#0E295C" opacity="1.000000" stroke="none" d=" M140.222687,86.118515   C140.608658,93.648399 140.671646,101.380196 140.665787,109.579300   C140.149979,109.984001 139.310547,109.913574 139.311600,109.859894   C139.467911,102.012619 139.685150,94.166557 140.222687,86.118515  z"/>
<path fill="#0E295C" opacity="1.000000" stroke="none" d=" M201.864212,232.014328   C202.373398,236.767654 202.528290,241.522705 202.826584,246.643066   C202.013062,245.106445 201.056137,243.204514 199.916046,240.945526   C199.672546,238.057312 199.612228,235.526154 199.470047,232.571777   C200.095428,232.104401 200.802673,232.060211 201.864212,232.014328  z"/>
<path fill="#072658" opacity="1.000000" stroke="none" d=" M194.652817,160.975891   C193.833237,161.532394 192.545502,162.536346 191.238312,162.562363   C184.096359,162.704468 176.949631,162.606232 169.350922,162.433533   C170.904495,161.850052 172.903488,161.107864 174.920364,161.055649   C181.335236,160.889526 187.756744,160.980347 194.652817,160.975891  z"/>
<path fill="#072658" opacity="1.000000" stroke="none" d=" M114.040657,94.758896   C113.640656,92.096344 113.519043,89.233459 113.554077,85.862862   C113.812668,85.221054 113.914612,85.086975 114.016556,84.952888   C114.016556,84.952888 113.803032,85.156036 113.876144,85.283981   C114.072517,88.460808 114.195786,91.509682 114.040657,94.758896  z"/>
<path fill="#1F3966" opacity="1.000000" stroke="none" d=" M72.700676,226.189072   C70.228973,226.435745 67.613800,226.334274 64.559769,226.256927   C66.775520,223.115936 69.604836,223.299210 72.700676,226.189072  z"/>
<path fill="#072658" opacity="1.000000" stroke="none" d=" M113.311279,110.869354   C113.163628,109.286102 113.339561,107.577644 113.637085,105.454208   C113.717400,106.940872 113.676140,108.842514 113.311279,110.869354  z"/>
<path fill="#1F3966" opacity="1.000000" stroke="none" d=" M79.299698,226.211517   C79.523109,227.235062 79.374123,228.243179 78.759735,229.621170   C77.557419,229.996948 76.820518,230.002869 76.083611,230.008789   C75.770813,229.525360 75.458015,229.041946 75.080917,228.277252   C76.320175,227.396027 77.623734,226.796066 79.299698,226.211517  z"/>
<path fill="#0E295C" opacity="1.000000" stroke="none" d=" M230.000381,237.998474   C231.837784,238.308609 233.675186,238.618729 235.546844,239.391663   C235.264755,239.902237 234.948410,239.949997 234.159851,240.083252   C233.087509,240.198822 232.487366,240.228867 231.329132,240.011353   C230.514160,239.175339 230.257278,238.586899 230.000381,237.998474  z"/>
<path fill="#0A295A" opacity="1.000000" stroke="none" d=" M90.586166,229.007462   C90.973526,229.452194 91.042366,229.893417 91.044510,230.665741   C89.592903,230.526138 88.207993,230.055420 86.823074,229.584717   C86.971649,229.125076 87.120224,228.665451 87.268806,228.205811   C88.268417,228.471863 89.268028,228.737915 90.586166,229.007462  z"/>
<path fill="#102F5D" opacity="1.000000" stroke="none" d=" M164.205536,163.257751   C164.767303,162.910568 165.535538,162.829361 166.677765,162.645599   C167.051727,162.543030 167.001617,162.777435 167.025543,163.173737   C167.311264,164.042725 167.573059,164.515411 167.834869,164.988083   C167.885818,165.741486 167.936783,166.494904 167.905731,167.618744   C166.686493,166.500702 165.549271,165.012207 164.205536,163.257751  z"/>
<path fill="#102F5D" opacity="1.000000" stroke="none" d=" M270.999756,237.981277   C272.068054,237.936295 273.136353,237.891312 274.605255,237.882446   C274.991974,238.448410 274.978058,238.978271 274.931488,239.904327   C274.251556,240.289551 273.604279,240.278595 272.369507,240.019302   C271.521240,239.174408 271.260498,238.577850 270.999756,237.981277  z"/>
<path fill="#0E295C" opacity="1.000000" stroke="none" d=" M194.833389,106.233871   C195.204865,107.354393 195.312408,108.735107 195.509186,110.528488   C195.255463,109.458786 194.912460,107.976418 194.833389,106.233871  z"/>
<path fill="#0E295C" opacity="1.000000" stroke="none" d=" M222.965683,110.731689   C222.757065,109.868950 222.826553,108.824944 222.973328,107.395721   C223.115005,108.190491 223.179398,109.370453 222.965683,110.731689  z"/>
<path fill="#0A295A" opacity="1.000000" stroke="none" d=" M87.005081,188.566147   C87.448189,188.654037 87.891289,188.741913 88.666893,188.916107   C88.141769,189.069580 87.284142,189.136780 86.499725,188.956726   C86.572929,188.709488 87.005081,188.566147 87.005081,188.566147  z"/>
<path fill="#102F5D" opacity="1.000000" stroke="none" d=" M79.022087,243.997971   C79.129181,244.715927 79.236275,245.433868 79.405869,246.510254   C79.203392,246.884674 78.938431,246.900665 78.275246,246.924469   C77.853348,246.235809 77.829689,245.539337 78.052826,244.463791   C78.540436,244.055817 78.781258,244.026901 79.022087,243.997971  z"/>
<path fill="#102F5D" opacity="1.000000" stroke="none" d=" M82.800529,226.372787   C82.191956,226.528259 81.452980,226.367783 80.335815,226.169022   C80.861794,226.106094 81.765961,226.081467 82.800529,226.372787  z"/>
<path fill="#0A295A" opacity="1.000000" stroke="none" d=" M168.213028,188.893066   C168.521332,188.716064 168.949280,188.771332 169.687500,188.918610   C169.442749,189.048874 168.887711,189.087097 168.213028,188.893066  z"/>
<path fill="#FAFBFB" opacity="1.000000" stroke="none" d=" M86.973198,188.343231   C87.005081,188.566147 86.572929,188.709488 86.345810,188.693832   C86.118690,188.678177 86.159782,188.291580 86.033417,188.143875   C85.945061,187.829468 85.983078,187.662750 86.118622,187.258820   C86.457870,187.387848 86.699593,187.754074 86.973198,188.343231  z"/>
<path fill="#102F5D" opacity="1.000000" stroke="none" d=" M140.913940,163.214767   C141.402328,162.904739 141.863113,162.862198 142.660675,162.911102   C142.535309,163.311356 142.073151,163.620193 141.325729,163.963287   C140.989105,163.825821 140.937714,163.654053 140.913940,163.214767  z"/>
<path fill="#EBECF1" opacity="1.000000" stroke="none" d=" M139.147583,59.306725   C139.158066,59.041252 139.316544,58.966537 139.729767,58.827080   C140.230179,59.016827 140.475876,59.271317 140.658356,59.784180   C140.161942,59.860859 139.728775,59.679169 139.147583,59.306725  z"/>
<path fill="#EBECF1" opacity="1.000000" stroke="none" d=" M86.065231,59.339626   C86.201050,59.076294 86.364685,59.041664 86.765732,59.088150   C86.946762,59.430664 86.815659,59.646702 86.439056,59.905937   C86.268295,59.994488 86.093048,59.568333 86.065231,59.339626  z"/>
<path fill="#0E295C" opacity="1.000000" stroke="none" d=" M223.194458,136.619843   C223.074066,136.629257 223.018936,136.386337 223.016602,136.263779   C223.014252,136.141220 223.331726,136.300049 223.331726,136.300049   C223.331726,136.300049 223.314850,136.610428 223.194458,136.619843  z"/>
<path fill="#FAFBFB" opacity="1.000000" stroke="none" d=" M167.104767,137.200165   C167.166107,136.945511 167.331757,136.884598 167.759674,136.859497   C168.019089,137.081177 168.016235,137.267059 167.932602,137.719818   C167.593414,137.837006 167.379166,137.639404 167.104767,137.200165  z"/>
<path fill="#1F3966" opacity="1.000000" stroke="none" d=" M64.022202,226.224884   C64.116081,226.523544 63.867554,226.720352 63.267052,226.792374   C63.218700,226.539520 63.473614,226.357986 64.022202,226.224884  z"/>
<path fill="#0E295C" opacity="1.000000" stroke="none" d=" M222.700012,188.830597   C222.593109,188.723618 222.655212,188.568039 222.861847,188.206924   C223.060867,188.208633 223.133331,188.414062 223.154724,188.624680   C223.159042,188.666992 222.969269,188.729050 222.700012,188.830597  z"/>
<path fill="#0E295C" opacity="1.000000" stroke="none" d=" M202.080399,229.050903   C202.287598,229.111923 202.349548,229.276566 202.318115,229.688034   C202.064987,229.772842 201.891296,229.621063 201.758041,229.439606   C201.733383,229.406052 201.871933,229.252640 202.080399,229.050903  z"/>
<path fill="#0A295A" opacity="1.000000" stroke="none" d=" M140.130417,189.049500   C140.125290,188.845978 140.260910,188.743958 140.640564,188.568588   C140.680099,188.713837 140.475632,188.932419 140.130417,189.049500  z"/>
<path fill="#EBECF1" opacity="1.000000" stroke="none" d=" M142.031357,85.099274   C141.872101,85.367210 141.667404,85.594177 141.216553,85.893265   C140.955612,85.843163 140.895401,85.679985 140.950836,85.283806   C141.066498,85.050812 141.006760,85.094803 141.251099,85.015335   C141.674103,84.990334 141.852737,85.044807 142.031357,85.099274  z"/>
<path fill="#0E295C" opacity="1.000000" stroke="none" d=" M202.332947,218.958786   C202.501999,219.059830 202.481186,219.266525 202.341980,219.761475   C202.094391,219.816422 201.943909,219.590912 201.853546,219.343430   C201.834946,219.292465 202.040726,219.159576 202.332947,218.958786  z"/>
<path fill="#6F7898" opacity="1.000000" stroke="none" d=" M209.745651,219.864258   C209.285004,220.015503 209.107452,219.783966 209.026917,219.223022   C208.987152,218.998505 209.464340,218.944336 209.704285,218.952362   C209.926804,219.169037 209.909378,219.377686 209.745651,219.864258  z"/>
<path fill="#0A295A" opacity="1.000000" stroke="none" d=" M86.485199,225.454834   C86.521904,225.437317 86.448486,225.472336 86.485199,225.454834  z"/>
<path fill="#1C3665" opacity="1.000000" stroke="none" d=" M168.918365,85.128220   C168.971985,86.242264 168.843292,87.271362 168.505920,88.629211   C168.216797,87.885788 168.136383,86.813614 167.999695,85.339752   C168.199905,85.031334 168.464142,85.066406 168.918365,85.128220  z"/>
<path fill="#1C3665" opacity="1.000000" stroke="none" d=" M167.245056,84.792160   C167.131592,83.935944 167.280396,83.188667 167.627838,82.231583   C167.887894,82.780838 167.949280,83.539886 168.030762,84.682343   C167.869659,85.010864 167.688477,84.955978 167.245056,84.792160  z"/>
<path fill="#1C3665" opacity="1.000000" stroke="none" d=" M195.057526,85.671768   C194.763306,85.896263 194.449905,85.799507 193.693176,85.483040   C193.846024,85.292397 194.442184,85.321457 195.057526,85.671768  z"/>
<path fill="#1C3665" opacity="1.000000" stroke="none" d=" M167.926208,164.658096   C167.573059,164.515411 167.311264,164.042725 167.022797,163.293549   C167.336594,163.454071 167.677063,163.891098 167.926208,164.658096  z"/>
<path fill="#FAFBFB" opacity="1.000000" stroke="none" d=" M86.022827,137.249191   C86.165436,136.959961 86.334000,136.922623 86.749741,136.962601   C86.898727,137.298904 86.751282,137.525848 86.393890,137.846802   C86.171730,137.815598 86.110268,137.658356 86.022827,137.249191  z"/>
<path fill="#EBECF1" opacity="1.000000" stroke="none" d=" M113.862152,84.845787   C113.914612,85.086975 113.812668,85.221054 113.476013,85.448700   C113.396782,85.274399 113.552261,85.006546 113.862152,84.845787  z"/>
<path fill="#1C3665" opacity="1.000000" stroke="none" d=" M142.237061,85.003769   C141.852737,85.044807 141.674103,84.990334 141.221268,84.993294   C140.940948,84.870255 140.934814,84.689774 141.014954,84.252525   C141.398453,84.084106 141.695663,84.172462 142.411392,84.466385   C142.829895,84.671936 142.442749,84.908257 142.237061,85.003769  z"/>
<path fill="#1F3966" opacity="1.000000" stroke="none" d=" M239.007675,235.281158   C239.658005,231.445068 241.370987,228.410950 245.078918,229.175659   C247.249146,229.623260 250.398132,232.277496 250.523880,234.115738   C250.731369,237.149353 249.756882,241.349487 247.649307,243.221390   C243.713318,246.717316 239.440155,242.861984 239.007675,235.281158  z"/>
<path fill="#1F3966" opacity="1.000000" stroke="none" d=" M95.630035,232.049652   C98.175148,230.878677 100.892578,228.907898 102.697815,229.540421   C104.605103,230.208740 106.673935,233.298401 106.797318,235.438446   C106.948120,238.054047 105.853317,241.496719 104.028992,243.295761   C101.218964,246.066849 95.933891,243.819061 95.132668,239.740784   C94.672798,237.400055 95.276344,234.850388 95.630035,232.049652  z"/>
<path fill="#27406C" opacity="1.000000" stroke="none" d=" M70.890686,237.421555   C73.828842,240.329895 71.439758,242.632828 69.757339,243.372787   C67.880722,244.198151 65.239182,243.284241 62.930573,243.127365   C63.527370,241.445816 63.651760,239.097122 64.842316,238.254120   C66.282387,237.234406 68.624901,237.489166 70.890686,237.421555  z"/>
<path fill="#102F5D" opacity="1.000000" stroke="none" d=" M76.061005,230.527878   C76.820518,230.002869 77.557419,229.996948 78.662788,229.994080   C79.078995,230.567703 79.126740,231.138275 79.094925,232.133087   C78.442528,232.972656 77.869690,233.387985 77.296852,233.803314   C76.877365,232.884537 76.457878,231.965744 76.061005,230.527878  z"/>
<path fill="#1F3966" opacity="1.000000" stroke="none" d=" M79.122116,243.574936   C78.781258,244.026901 78.540436,244.055817 77.938705,244.130676   C77.065582,243.591736 76.553368,243.006821 76.041153,242.421906   C76.867119,241.918777 77.693085,241.415649 78.766281,241.175476   C79.083061,242.009598 79.152603,242.580750 79.122116,243.574936  z"/>
<path fill="#1F3966" opacity="1.000000" stroke="none" d=" M116.210007,233.377960   C117.926926,231.649521 119.693100,229.416199 121.635025,229.251205   C123.459305,229.096191 125.469223,231.125961 127.397461,232.194412   C127.212502,232.721649 127.027550,233.248901 126.842590,233.776138   C123.340385,233.776138 119.838188,233.776138 116.210007,233.377960  z"/>
<path fill="#1F3966" opacity="1.000000" stroke="none" d=" M229.671814,237.903244   C230.257278,238.586899 230.514160,239.175339 231.031372,239.965271   C229.595215,244.200516 226.556870,245.026138 222.197296,243.258499   C221.401016,242.519943 221.059616,242.303223 220.718216,242.086502   C220.388489,241.633743 220.058777,241.180984 219.991547,240.239502   C220.503677,239.157578 220.753311,238.564377 221.002960,237.971176   C221.757065,237.911697 222.511185,237.852219 223.737503,238.025146   C224.209717,238.257523 224.648071,238.332932 224.648071,238.332932   C224.648071,238.332932 225.001083,237.995102 225.001083,237.995087   C225.447891,237.926346 225.894699,237.857620 226.773605,238.022659   C227.470886,238.169632 227.736084,238.082825 228.001282,237.996033   C228.448593,237.933365 228.895920,237.870682 229.671814,237.903244  z"/>
<path fill="#1F3966" opacity="1.000000" stroke="none" d=" M224.007721,229.166260   C226.094452,230.167999 228.181198,231.169769 230.000992,232.556244   C228.483856,233.497040 227.233643,234.053101 225.983429,234.609161   C224.601761,234.662155 223.220093,234.715149 221.353104,234.427246   C220.483414,233.690155 220.099030,233.293976 219.714661,232.897797   C219.743698,232.733170 219.772751,232.568558 220.223328,232.134125   C220.827805,231.419342 221.010727,230.974365 221.193634,230.529404   C221.193649,230.529404 221.312790,230.253235 221.750336,230.364929   C222.794495,230.039825 223.401108,229.603043 224.007721,229.166260  z"/>
<path fill="#27406C" opacity="1.000000" stroke="none" d=" M226.347366,234.692993   C227.233643,234.053101 228.483856,233.497040 230.116699,232.908569   C229.236679,233.509735 227.973999,234.143280 226.347366,234.692993  z"/>
<path fill="#0E295C" opacity="1.000000" stroke="none" d=" M220.687256,237.903641   C220.753311,238.564377 220.503677,239.157578 219.988434,239.947327   C219.939072,239.374634 220.155334,238.605362 220.687256,237.903641  z"/>
<path fill="#27406C" opacity="1.000000" stroke="none" d=" M219.513336,233.102966   C220.099030,233.293976 220.483414,233.690155 220.942749,234.359314   C220.449142,234.190918 219.880585,233.749527 219.513336,233.102966  z"/>
<path fill="#27406C" opacity="1.000000" stroke="none" d=" M223.734802,229.131439   C223.401108,229.603043 222.794495,230.039825 221.896927,230.331375   C222.224625,229.822968 222.843262,229.459793 223.734802,229.131439  z"/>
<path fill="#27406C" opacity="1.000000" stroke="none" d=" M220.989594,230.663940   C221.010727,230.974365 220.827805,231.419342 220.375214,231.934616   C220.332214,231.602783 220.558868,231.200638 220.989594,230.663940  z"/>
<path fill="#0E295C" opacity="1.000000" stroke="none" d=" M220.855530,242.376740   C221.059616,242.303223 221.401016,242.519943 221.933777,242.978302   C221.747711,243.035614 221.370285,242.851288 220.855530,242.376740  z"/>
<path fill="#0E295C" opacity="1.000000" stroke="none" d=" M227.750717,237.926788   C227.736084,238.082825 227.470886,238.169632 227.101547,238.123169   C227.164993,237.945770 227.332581,237.901672 227.750717,237.926788  z"/>
<path fill="#0E295C" opacity="1.000000" stroke="none" d=" M224.750504,237.928955   C225.001083,237.995102 224.648071,238.332932 224.648071,238.332932   C224.648071,238.332932 224.209717,238.257523 224.104568,238.127487   C224.166260,237.952560 224.333099,237.907669 224.750504,237.928955  z"/>
<path fill="#1F3966" opacity="1.000000" stroke="none" d=" M270.672180,237.877869   C271.260498,238.577850 271.521240,239.174408 272.049255,239.970993   C270.525696,244.365112 267.356323,245.055389 263.237823,243.211761   C262.666412,242.539169 262.234589,242.342865 261.802765,242.146576   C261.802765,242.146576 261.903961,242.092606 261.921631,241.721298   C261.960144,240.220322 261.980957,239.090637 262.001770,237.960968   C262.755432,237.900711 263.509064,237.840485 264.857330,238.120453   C266.634766,238.303360 267.817627,238.146042 269.000458,237.988724   C269.448517,237.917297 269.896576,237.845871 270.672180,237.877869  z"/>
<path fill="#1F3966" opacity="1.000000" stroke="none" d=" M261.957245,230.896240   C264.415009,228.051407 267.106934,228.504318 269.973633,230.715210   C270.050720,231.097961 270.055511,231.282883 270.055511,231.282883   C270.055511,231.282883 270.350067,231.017731 270.350067,231.017731   C270.350067,231.017731 270.761627,231.260651 270.441956,231.740051   C267.233459,232.809860 264.116547,234.807648 261.957245,230.896240  z"/>
<path fill="#27406C" opacity="1.000000" stroke="none" d=" M261.645996,231.081909   C264.116547,234.807648 267.233459,232.809860 270.507629,231.969803   C272.031189,233.273834 272.922485,234.767441 269.812531,234.801758   C266.727936,234.835800 263.642609,234.809204 259.989807,234.809204   C260.574524,233.269485 260.954651,232.268524 261.645996,231.081909  z"/>
<path fill="#102F5D" opacity="1.000000" stroke="none" d=" M261.654968,237.898346   C261.980957,239.090637 261.960144,240.220322 261.896118,241.772644   C261.671326,240.742096 261.489746,239.288910 261.654968,237.898346  z"/>
<path fill="#102F5D" opacity="1.000000" stroke="none" d=" M268.605164,237.905518   C267.817627,238.146042 266.634766,238.303360 265.224243,238.221725   C266.067627,237.929291 267.138763,237.875809 268.605164,237.905518  z"/>
<path fill="#102F5D" opacity="1.000000" stroke="none" d=" M261.892212,242.383652   C262.234589,242.342865 262.666412,242.539169 262.974731,242.905014   C262.561340,242.923279 262.271515,242.772003 261.892212,242.383652  z"/>
<path fill="#27406C" opacity="1.000000" stroke="none" d=" M270.334473,231.010696   C270.350067,231.017731 270.055511,231.282883 270.055511,231.282883   C270.055511,231.282883 270.050720,231.097961 270.176697,231.035858   C270.302704,230.973740 270.318909,231.003662 270.334473,231.010696  z"/>
<path fill="#1C3665" opacity="1.000000" stroke="none" d=" M185.112274,231.374603   C188.639435,228.031662 191.910233,228.071213 194.814468,231.436630   C197.319138,234.339050 196.754227,240.465302 194.011261,242.818115   C190.448074,245.874527 184.607590,244.000793 184.030945,239.347443   C183.724319,236.873260 184.553619,234.258331 185.112274,231.374603  z"/>
<path fill="#6F7898" opacity="1.000000" stroke="none" d=" M209.698471,222.821945   C209.467010,222.797089 209.348877,222.447113 209.399292,221.975006   C209.649185,222.067520 209.730499,222.282181 209.698471,222.821945  z"/>
</svg>